<svg xmlns="http://www.w3.org/2000/svg" xmlns:xlink="http://www.w3.org/1999/xlink" width="40" zoomAndPan="magnify" viewBox="0 0 30 37.92" height="40" preserveAspectRatio="xMidYMid meet" version="1.0"><defs><clipPath id="4e5305a84c"><path d="M 1.964844 0.875 L 28.160156 0.875 L 28.160156 27 L 1.964844 27 Z M 1.964844 0.875 " clip-rule="nonzero"/></clipPath></defs><g clip-path="url(#4e5305a84c)"><path fill="#ea3969" d="M 20.308594 17.828125 C 20.308594 17.648438 20.457031 17.503906 20.632812 17.503906 L 24.828125 17.503906 C 25.011719 17.503906 25.152344 17.648438 25.152344 17.828125 C 25.152344 18.007812 25.011719 18.152344 24.828125 18.152344 L 20.632812 18.152344 C 20.457031 18.152344 20.308594 18.007812 20.308594 17.828125 Z M 17.769531 17.828125 C 17.769531 17.648438 17.914062 17.503906 18.09375 17.503906 L 18.765625 17.503906 C 18.945312 17.503906 19.089844 17.648438 19.089844 17.828125 C 19.089844 18.007812 18.945312 18.152344 18.765625 18.152344 L 18.09375 18.152344 C 17.914062 18.152344 17.769531 18.007812 17.769531 17.828125 Z M 17.769531 16.25 C 17.769531 16.070312 17.914062 15.925781 18.09375 15.925781 L 18.765625 15.925781 C 18.945312 15.925781 19.089844 16.070312 19.089844 16.25 C 19.089844 16.429688 18.945312 16.574219 18.765625 16.574219 L 18.09375 16.574219 C 17.914062 16.574219 17.769531 16.429688 17.769531 16.25 Z M 20.308594 16.25 C 20.308594 16.070312 20.457031 15.925781 20.632812 15.925781 L 24.828125 15.925781 C 25.011719 15.925781 25.152344 16.070312 25.152344 16.25 C 25.152344 16.429688 25.011719 16.574219 24.828125 16.574219 L 20.632812 16.574219 C 20.457031 16.574219 20.308594 16.429688 20.308594 16.25 Z M 20.308594 14.667969 C 20.308594 14.488281 20.457031 14.34375 20.632812 14.34375 L 24.828125 14.34375 C 25.011719 14.34375 25.152344 14.492188 25.152344 14.667969 C 25.152344 14.847656 25.011719 14.992188 24.828125 14.992188 L 20.632812 14.992188 C 20.457031 14.992188 20.308594 14.847656 20.308594 14.667969 Z M 17.769531 14.667969 C 17.769531 14.488281 17.914062 14.34375 18.09375 14.34375 L 18.765625 14.34375 C 18.945312 14.34375 19.089844 14.492188 19.089844 14.667969 C 19.089844 14.847656 18.945312 14.992188 18.765625 14.992188 L 18.09375 14.992188 C 17.914062 14.992188 17.769531 14.847656 17.769531 14.667969 Z M 17.769531 13.089844 C 17.769531 12.910156 17.914062 12.765625 18.09375 12.765625 L 18.765625 12.765625 C 18.945312 12.765625 19.089844 12.910156 19.089844 13.089844 C 19.089844 13.269531 18.945312 13.414062 18.765625 13.414062 L 18.09375 13.414062 C 17.914062 13.414062 17.769531 13.269531 17.769531 13.089844 Z M 20.308594 13.089844 C 20.308594 12.910156 20.457031 12.765625 20.632812 12.765625 L 24.828125 12.765625 C 25.011719 12.765625 25.152344 12.910156 25.152344 13.089844 C 25.152344 13.269531 25.011719 13.414062 24.828125 13.414062 L 20.632812 13.414062 C 20.457031 13.414062 20.308594 13.269531 20.308594 13.089844 Z M 9.316406 7.171875 L 11.503906 8.789062 C 11.632812 8.886719 11.8125 8.871094 11.925781 8.757812 L 13.808594 6.875 C 13.933594 6.75 13.933594 6.542969 13.808594 6.417969 L 13.566406 6.175781 L 14.8125 6.175781 L 14.8125 7.421875 L 14.570312 7.179688 C 14.511719 7.121094 14.429688 7.085938 14.34375 7.085938 C 14.257812 7.085938 14.175781 7.117188 14.113281 7.179688 L 11.769531 9.523438 L 9.585938 7.90625 C 9.457031 7.8125 9.277344 7.824219 9.164062 7.9375 L 5.925781 11.175781 L 5.621094 10.871094 Z M 5.695312 11.863281 C 5.757812 11.925781 5.84375 11.957031 5.925781 11.957031 C 6.007812 11.957031 6.089844 11.925781 6.15625 11.863281 L 9.421875 8.59375 L 11.609375 10.210938 C 11.738281 10.308594 11.917969 10.292969 12.03125 10.179688 L 14.34375 7.867188 L 14.910156 8.433594 C 15 8.527344 15.140625 8.554688 15.261719 8.503906 C 15.382812 8.453125 15.460938 8.335938 15.460938 8.207031 L 15.460938 5.851562 C 15.460938 5.671875 15.316406 5.527344 15.136719 5.527344 L 12.785156 5.527344 C 12.652344 5.527344 12.535156 5.605469 12.484375 5.726562 C 12.433594 5.847656 12.460938 5.988281 12.554688 6.078125 L 13.121094 6.644531 L 11.664062 8.101562 L 9.480469 6.484375 C 9.347656 6.390625 9.171875 6.402344 9.054688 6.515625 L 4.933594 10.640625 C 4.804688 10.769531 4.804688 10.972656 4.933594 11.101562 Z M 14.8125 17.503906 L 14.8125 10.730469 L 13.890625 10.730469 L 13.890625 17.503906 Z M 15.136719 10.082031 L 13.566406 10.082031 C 13.386719 10.082031 13.242188 10.230469 13.242188 10.40625 L 13.242188 17.828125 C 13.242188 18.007812 13.386719 18.152344 13.566406 18.152344 L 15.136719 18.152344 C 15.316406 18.152344 15.460938 18.007812 15.460938 17.828125 L 15.460938 10.40625 C 15.460938 10.226562 15.316406 10.082031 15.136719 10.082031 Z M 12.011719 17.503906 L 11.089844 17.503906 L 11.089844 13.234375 L 12.011719 13.234375 Z M 12.335938 12.585938 L 10.765625 12.585938 C 10.585938 12.585938 10.441406 12.730469 10.441406 12.910156 L 10.441406 17.828125 C 10.441406 18.007812 10.585938 18.152344 10.765625 18.152344 L 12.335938 18.152344 C 12.515625 18.152344 12.660156 18.007812 12.660156 17.828125 L 12.660156 12.910156 C 12.660156 12.730469 12.515625 12.585938 12.335938 12.585938 Z M 9.210938 17.503906 L 8.289062 17.503906 L 8.289062 11.945312 L 9.210938 11.945312 Z M 9.535156 11.296875 C 9.714844 11.296875 9.859375 11.441406 9.859375 11.621094 L 9.859375 17.828125 C 9.859375 18.007812 9.714844 18.152344 9.535156 18.152344 L 7.964844 18.152344 C 7.785156 18.152344 7.636719 18.007812 7.636719 17.828125 L 7.636719 11.621094 C 7.636719 11.441406 7.785156 11.296875 7.964844 11.296875 Z M 5.484375 14.527344 L 6.40625 14.527344 L 6.40625 17.503906 L 5.484375 17.503906 Z M 5.160156 18.152344 L 6.734375 18.152344 C 6.910156 18.152344 7.058594 18.007812 7.058594 17.828125 L 7.058594 14.203125 C 7.058594 14.023438 6.910156 13.878906 6.734375 13.878906 L 5.160156 13.878906 C 4.980469 13.878906 4.835938 14.023438 4.835938 14.203125 L 4.835938 17.828125 C 4.835938 18.007812 4.980469 18.152344 5.160156 18.152344 Z M 26.464844 22.179688 L 3.527344 22.179688 C 3.023438 22.179688 2.609375 21.769531 2.609375 21.261719 L 2.609375 20.367188 L 27.378906 20.367188 L 27.378906 21.261719 C 27.378906 21.769531 26.96875 22.179688 26.464844 22.179688 Z M 18.195312 24.222656 L 11.796875 24.222656 L 12.335938 22.828125 L 17.65625 22.828125 Z M 20.828125 25.347656 L 20.828125 26.292969 L 9.164062 26.292969 L 9.164062 25.347656 C 9.164062 25.085938 9.375 24.871094 9.636719 24.871094 L 20.351562 24.871094 C 20.617188 24.871094 20.828125 25.085938 20.828125 25.347656 Z M 3.527344 3.960938 C 3.023438 3.960938 2.609375 4.375 2.609375 4.878906 L 2.609375 19.71875 L 27.378906 19.71875 L 27.378906 4.878906 C 27.378906 4.375 26.96875 3.960938 26.460938 3.960938 L 25.40625 3.960938 C 25.695312 4.605469 25.851562 5.320312 25.851562 6.070312 C 25.851562 6.25 25.710938 6.394531 25.527344 6.394531 L 24.644531 6.394531 C 24.476562 8.449219 22.753906 10.070312 20.65625 10.070312 C 18.453125 10.070312 16.660156 8.277344 16.660156 6.070312 C 16.660156 5.296875 16.878906 4.574219 17.261719 3.960938 Z M 20.332031 2.738281 L 20.332031 6.070312 C 20.332031 6.25 20.476562 6.394531 20.65625 6.394531 L 23.992188 6.394531 C 23.828125 8.089844 22.394531 9.421875 20.65625 9.421875 C 18.808594 9.421875 17.308594 7.917969 17.308594 6.070312 C 17.308594 4.332031 18.636719 2.902344 20.332031 2.738281 Z M 20.984375 1.535156 C 23.230469 1.695312 25.035156 3.496094 25.195312 5.746094 L 20.984375 5.746094 Z M 26.464844 3.3125 L 25.0625 3.3125 C 24.140625 1.851562 22.511719 0.875 20.65625 0.875 C 20.476562 0.875 20.332031 1.019531 20.332031 1.199219 L 20.332031 2.085938 C 19.328125 2.167969 18.425781 2.621094 17.765625 3.3125 L 3.527344 3.3125 C 2.664062 3.3125 1.960938 4.015625 1.960938 4.878906 L 1.960938 21.261719 C 1.960938 22.125 2.664062 22.828125 3.527344 22.828125 L 11.640625 22.828125 L 11.101562 24.222656 L 9.636719 24.222656 C 9.015625 24.222656 8.511719 24.726562 8.511719 25.347656 L 8.511719 26.617188 C 8.511719 26.796875 8.660156 26.941406 8.839844 26.941406 L 21.152344 26.941406 C 21.332031 26.941406 21.476562 26.796875 21.476562 26.617188 L 21.476562 25.347656 C 21.476562 24.726562 20.972656 24.222656 20.351562 24.222656 L 18.890625 24.222656 L 18.351562 22.828125 L 26.464844 22.828125 C 27.328125 22.828125 28.027344 22.128906 28.027344 21.261719 L 28.027344 4.878906 C 28.027344 4.015625 27.328125 3.3125 26.464844 3.3125 Z M 26.464844 3.3125 " fill-opacity="1" fill-rule="evenodd"/></g></svg>