<svg xmlns="http://www.w3.org/2000/svg" xmlns:xlink="http://www.w3.org/1999/xlink" width="40" zoomAndPan="magnify" viewBox="0 0 30 37.92" height="40" preserveAspectRatio="xMidYMid meet" version="1.0"><defs><clipPath id="533f44c5c4"><path d="M 1.527344 4.984375 L 28.472656 4.984375 L 28.472656 25 L 1.527344 25 Z M 1.527344 4.984375 " clip-rule="nonzero"/></clipPath></defs><path fill="#ea3969" d="M 12.742188 15.222656 L 14.101562 15.222656 C 14.25 15.222656 14.324219 15.152344 14.324219 15.003906 L 14.324219 12.480469 C 14.324219 12.332031 14.25 12.261719 14.101562 12.261719 L 12.742188 12.261719 C 12.597656 12.261719 12.523438 12.332031 12.523438 12.480469 L 12.523438 15.003906 C 12.523438 15.152344 12.597656 15.222656 12.742188 15.222656 Z M 12.960938 12.699219 L 13.882812 12.699219 L 13.882812 14.785156 L 12.960938 14.785156 Z M 12.960938 12.699219 " fill-opacity="1" fill-rule="nonzero"/><path fill="#ea3969" d="M 15.023438 15.222656 L 16.386719 15.222656 C 16.53125 15.222656 16.605469 15.152344 16.605469 15.003906 L 16.605469 11.390625 C 16.605469 11.246094 16.53125 11.171875 16.386719 11.171875 L 15.023438 11.171875 C 14.878906 11.171875 14.804688 11.246094 14.804688 11.390625 L 14.804688 15.003906 C 14.804688 15.152344 14.878906 15.222656 15.023438 15.222656 Z M 15.246094 11.613281 L 16.164062 11.613281 L 16.164062 14.785156 L 15.246094 14.785156 Z M 15.246094 11.613281 " fill-opacity="1" fill-rule="nonzero"/><path fill="#ea3969" d="M 5.660156 13.054688 C 5.660156 13.203125 5.734375 13.273438 5.878906 13.273438 L 9.90625 13.273438 C 10.050781 13.273438 10.125 13.203125 10.125 13.054688 C 10.125 12.910156 10.050781 12.835938 9.90625 12.835938 L 5.878906 12.835938 C 5.734375 12.835938 5.660156 12.910156 5.660156 13.054688 Z M 5.660156 13.054688 " fill-opacity="1" fill-rule="nonzero"/><path fill="#ea3969" d="M 4.753906 12.574219 L 3.761719 13.410156 L 3.390625 13.0625 C 3.28125 12.960938 3.179688 12.964844 3.078125 13.074219 C 2.976562 13.179688 2.980469 13.28125 3.089844 13.382812 L 3.601562 13.867188 C 3.695312 13.953125 3.792969 13.957031 3.894531 13.875 L 5.035156 12.910156 C 5.148438 12.8125 5.15625 12.710938 5.0625 12.597656 C 4.96875 12.488281 4.867188 12.476562 4.753906 12.574219 Z M 4.753906 12.574219 " fill-opacity="1" fill-rule="nonzero"/><path fill="#ea3969" d="M 9.90625 14.390625 L 5.878906 14.390625 C 5.734375 14.390625 5.660156 14.460938 5.660156 14.609375 C 5.660156 14.753906 5.734375 14.828125 5.878906 14.828125 L 9.90625 14.828125 C 10.050781 14.828125 10.125 14.753906 10.125 14.609375 C 10.125 14.460938 10.050781 14.390625 9.90625 14.390625 Z M 9.90625 14.390625 " fill-opacity="1" fill-rule="nonzero"/><path fill="#ea3969" d="M 4.753906 14.125 L 3.761719 14.964844 L 3.390625 14.617188 C 3.28125 14.515625 3.179688 14.519531 3.078125 14.625 C 2.980469 14.734375 2.980469 14.835938 3.089844 14.9375 L 3.601562 15.417969 C 3.695312 15.507812 3.792969 15.511719 3.894531 15.425781 L 5.035156 14.460938 C 5.148438 14.367188 5.15625 14.265625 5.0625 14.152344 C 4.96875 14.039062 4.863281 14.03125 4.753906 14.125 Z M 4.753906 14.125 " fill-opacity="1" fill-rule="nonzero"/><path fill="#ea3969" d="M 23 14.628906 C 22.664062 14.300781 22.273438 14.046875 21.832031 13.867188 C 21.394531 13.691406 20.9375 13.605469 20.464844 13.609375 C 19.988281 13.617188 19.535156 13.710938 19.097656 13.898438 C 18.664062 14.082031 18.277344 14.347656 17.945312 14.683594 C 17.613281 15.023438 17.359375 15.414062 17.183594 15.851562 C 17.007812 16.292969 16.921875 16.75 16.925781 17.222656 C 16.929688 17.699219 17.027344 18.152344 17.210938 18.589844 C 17.398438 19.023438 17.660156 19.40625 18 19.738281 C 18.335938 20.070312 18.726562 20.324219 19.167969 20.503906 C 19.605469 20.679688 20.0625 20.765625 20.539062 20.761719 C 21.011719 20.757812 21.464844 20.660156 21.902344 20.476562 C 22.339844 20.289062 22.722656 20.027344 23.054688 19.6875 C 23.386719 19.351562 23.640625 18.960938 23.816406 18.519531 C 23.992188 18.082031 24.078125 17.625 24.074219 17.148438 C 24.070312 16.675781 23.972656 16.21875 23.789062 15.785156 C 23.601562 15.347656 23.339844 14.960938 23 14.628906 Z M 18.304688 19.429688 C 17.851562 18.984375 17.558594 18.453125 17.429688 17.832031 C 17.296875 17.210938 17.351562 16.605469 17.585938 16.015625 C 17.824219 15.425781 18.203125 14.953125 18.726562 14.59375 C 19.253906 14.238281 19.832031 14.054688 20.464844 14.046875 C 20.476562 14.046875 20.488281 14.046875 20.5 14.046875 C 20.757812 14.046875 21.011719 14.078125 21.261719 14.140625 C 21.507812 14.203125 21.746094 14.296875 21.976562 14.417969 C 22.203125 14.539062 22.410156 14.683594 22.601562 14.859375 C 22.792969 15.03125 22.960938 15.222656 23.101562 15.4375 C 23.246094 15.648438 23.363281 15.878906 23.449219 16.121094 C 23.539062 16.363281 23.59375 16.609375 23.621094 16.867188 C 23.644531 17.121094 23.640625 17.378906 23.605469 17.632812 C 23.566406 17.886719 23.5 18.132812 23.402344 18.371094 C 23.304688 18.609375 23.179688 18.832031 23.03125 19.039062 C 22.878906 19.25 22.703125 19.433594 22.503906 19.597656 C 22.308594 19.761719 22.09375 19.902344 21.859375 20.011719 C 21.628906 20.125 21.386719 20.207031 21.132812 20.257812 C 20.882812 20.3125 20.628906 20.332031 20.371094 20.320312 C 20.113281 20.3125 19.863281 20.269531 19.613281 20.195312 C 19.367188 20.125 19.132812 20.023438 18.910156 19.894531 C 18.691406 19.761719 18.488281 19.609375 18.304688 19.429688 Z M 18.304688 19.429688 " fill-opacity="1" fill-rule="nonzero"/><g clip-path="url(#533f44c5c4)"><path fill="#ea3969" d="M 28.195312 23.132812 L 24.914062 19.925781 C 24.871094 19.882812 24.820312 19.859375 24.761719 19.859375 C 24.699219 19.863281 24.648438 19.882812 24.605469 19.925781 L 24.480469 20.054688 L 24.0625 19.644531 C 24.351562 19.222656 24.5625 18.765625 24.691406 18.273438 C 24.820312 17.777344 24.859375 17.277344 24.8125 16.769531 C 24.761719 16.261719 24.628906 15.777344 24.40625 15.316406 C 24.1875 14.855469 23.894531 14.445312 23.53125 14.089844 C 23.503906 14.0625 23.476562 14.039062 23.453125 14.015625 L 23.453125 8.851562 C 23.453125 8.707031 23.378906 8.632812 23.230469 8.632812 L 22.78125 8.632812 L 22.78125 7.714844 C 22.929688 7.667969 23.050781 7.578125 23.144531 7.453125 C 23.234375 7.324219 23.28125 7.179688 23.28125 7.023438 C 23.28125 6.867188 23.234375 6.722656 23.144531 6.597656 C 23.050781 6.46875 22.929688 6.378906 22.78125 6.332031 L 22.78125 6.285156 C 22.777344 6.113281 22.746094 5.945312 22.679688 5.785156 C 22.613281 5.625 22.519531 5.484375 22.394531 5.359375 C 22.273438 5.238281 22.132812 5.144531 21.972656 5.078125 C 21.8125 5.011719 21.644531 4.976562 21.46875 4.976562 L 2.910156 4.976562 C 2.738281 4.976562 2.570312 5.011719 2.410156 5.078125 C 2.25 5.144531 2.109375 5.238281 1.984375 5.359375 C 1.863281 5.484375 1.769531 5.625 1.703125 5.785156 C 1.636719 5.945312 1.601562 6.113281 1.601562 6.285156 L 1.601562 17.394531 C 1.601562 17.566406 1.636719 17.734375 1.703125 17.894531 C 1.769531 18.054688 1.863281 18.195312 1.988281 18.316406 C 2.109375 18.4375 2.25 18.535156 2.410156 18.601562 C 2.570312 18.667969 2.738281 18.699219 2.910156 18.699219 L 10.25 18.699219 L 9.660156 20.59375 L 9.550781 20.59375 C 9.292969 20.597656 9.070312 20.6875 8.882812 20.871094 C 8.699219 21.058594 8.609375 21.28125 8.605469 21.539062 L 8.605469 22.265625 C 8.605469 22.414062 8.679688 22.484375 8.828125 22.484375 L 15.554688 22.484375 C 15.703125 22.484375 15.773438 22.414062 15.773438 22.265625 L 15.773438 21.539062 C 15.773438 21.28125 15.683594 21.058594 15.496094 20.871094 C 15.3125 20.6875 15.089844 20.597656 14.828125 20.59375 L 14.722656 20.59375 L 14.132812 18.699219 L 16.4375 18.699219 C 16.550781 19.011719 16.703125 19.308594 16.886719 19.585938 C 17.070312 19.863281 17.285156 20.117188 17.527344 20.34375 C 17.769531 20.570312 18.035156 20.769531 18.324219 20.9375 C 18.613281 21.101562 18.917969 21.234375 19.238281 21.332031 C 19.554688 21.429688 19.882812 21.488281 20.214844 21.507812 C 20.546875 21.53125 20.878906 21.511719 21.207031 21.457031 C 21.535156 21.402344 21.855469 21.308594 22.160156 21.183594 C 22.46875 21.054688 22.757812 20.890625 23.027344 20.695312 L 23.449219 21.109375 L 23.324219 21.234375 C 23.222656 21.339844 23.222656 21.441406 23.328125 21.546875 L 26.605469 24.753906 C 26.738281 24.886719 26.894531 24.949219 27.082031 24.949219 C 27.082031 24.949219 27.085938 24.949219 27.085938 24.949219 C 27.277344 24.949219 27.433594 24.878906 27.566406 24.746094 L 28.203125 24.09375 C 28.335938 23.960938 28.398438 23.800781 28.398438 23.613281 C 28.394531 23.425781 28.328125 23.265625 28.195312 23.132812 Z M 15.335938 21.539062 L 15.335938 22.046875 L 9.046875 22.046875 L 9.046875 21.539062 C 9.046875 21.402344 9.097656 21.28125 9.195312 21.183594 C 9.292969 21.085938 9.414062 21.035156 9.550781 21.035156 L 14.828125 21.035156 C 14.96875 21.035156 15.089844 21.085938 15.1875 21.183594 C 15.285156 21.28125 15.335938 21.402344 15.335938 21.539062 Z M 10.121094 20.59375 L 10.707031 18.699219 L 13.671875 18.699219 L 14.261719 20.59375 Z M 24.765625 20.390625 L 25.285156 20.898438 L 24.308594 21.894531 L 23.792969 21.386719 L 23.914062 21.257812 L 23.917969 21.257812 L 24.640625 20.519531 L 24.640625 20.515625 Z M 23.011719 9.074219 L 23.011719 13.65625 C 22.726562 13.449219 22.417969 13.28125 22.09375 13.152344 L 22.09375 9.074219 Z M 22.84375 7.023438 C 22.84375 7.089844 22.820312 7.148438 22.78125 7.203125 C 22.722656 7.277344 22.644531 7.3125 22.550781 7.3125 C 22.464844 7.3125 22.394531 7.28125 22.339844 7.21875 C 22.316406 7.195312 22.296875 7.171875 22.285156 7.140625 C 22.285156 7.136719 22.28125 7.128906 22.277344 7.128906 C 22.265625 7.09375 22.261719 7.058594 22.261719 7.023438 C 22.261719 6.949219 22.285156 6.882812 22.339844 6.828125 C 22.394531 6.765625 22.464844 6.734375 22.550781 6.734375 C 22.644531 6.734375 22.722656 6.769531 22.78125 6.847656 C 22.820312 6.898438 22.84375 6.957031 22.84375 7.023438 Z M 2.910156 5.417969 L 21.46875 5.417969 C 21.710938 5.417969 21.914062 5.5 22.085938 5.671875 C 22.253906 5.839844 22.339844 6.046875 22.339844 6.285156 L 22.339844 6.324219 C 22.1875 6.371094 22.0625 6.460938 21.964844 6.589844 C 21.871094 6.71875 21.820312 6.863281 21.820312 7.023438 C 21.820312 7.058594 21.824219 7.097656 21.832031 7.132812 L 20.703125 7.890625 C 20.570312 7.792969 20.421875 7.742188 20.257812 7.746094 C 20.089844 7.75 19.945312 7.800781 19.816406 7.902344 C 19.6875 8.007812 19.601562 8.136719 19.5625 8.296875 C 19.523438 8.457031 19.535156 8.613281 19.601562 8.761719 L 18.4375 10.078125 C 18.292969 9.964844 18.128906 9.910156 17.941406 9.921875 C 17.757812 9.933594 17.601562 10.003906 17.472656 10.136719 L 16.425781 9.640625 C 16.429688 9.617188 16.433594 9.589844 16.433594 9.5625 C 16.433594 9.363281 16.363281 9.191406 16.222656 9.046875 C 16.078125 8.90625 15.90625 8.835938 15.707031 8.835938 C 15.503906 8.835938 15.332031 8.90625 15.191406 9.046875 C 15.046875 9.191406 14.976562 9.363281 14.976562 9.5625 C 14.976562 9.597656 14.980469 9.636719 14.988281 9.671875 L 13.980469 10.183594 C 13.90625 10.097656 13.816406 10.03125 13.710938 9.988281 C 13.605469 9.941406 13.496094 9.921875 13.378906 9.929688 C 13.265625 9.9375 13.160156 9.972656 13.058594 10.03125 C 12.960938 10.085938 12.878906 10.164062 12.820312 10.261719 C 12.757812 10.355469 12.71875 10.460938 12.707031 10.574219 C 12.695312 10.691406 12.707031 10.800781 12.746094 10.90625 C 12.785156 11.015625 12.847656 11.109375 12.933594 11.1875 C 13.015625 11.265625 13.113281 11.320312 13.222656 11.351562 C 13.332031 11.382812 13.445312 11.390625 13.558594 11.371094 C 13.671875 11.347656 13.773438 11.304688 13.863281 11.234375 C 13.957031 11.164062 14.027344 11.078125 14.078125 10.976562 C 14.128906 10.875 14.152344 10.765625 14.152344 10.652344 C 14.152344 10.632812 14.148438 10.613281 14.148438 10.59375 L 15.179688 10.066406 C 15.324219 10.222656 15.503906 10.296875 15.71875 10.292969 C 15.933594 10.289062 16.109375 10.207031 16.25 10.042969 L 17.269531 10.527344 C 17.25 10.636719 17.253906 10.746094 17.285156 10.855469 C 17.3125 10.960938 17.363281 11.058594 17.4375 11.140625 C 17.511719 11.226562 17.597656 11.289062 17.703125 11.335938 C 17.804688 11.378906 17.910156 11.398438 18.023438 11.390625 C 18.136719 11.386719 18.238281 11.355469 18.335938 11.304688 C 18.4375 11.25 18.515625 11.175781 18.582031 11.085938 C 18.648438 10.996094 18.6875 10.894531 18.707031 10.785156 C 18.726562 10.675781 18.71875 10.566406 18.6875 10.457031 L 19.890625 9.097656 C 20.007812 9.167969 20.132812 9.203125 20.269531 9.203125 C 20.472656 9.203125 20.644531 9.132812 20.785156 8.992188 C 20.929688 8.847656 21 8.675781 21 8.476562 C 21 8.394531 20.984375 8.320312 20.960938 8.246094 L 22.027344 7.53125 C 22.113281 7.621094 22.21875 7.683594 22.339844 7.722656 L 22.339844 8.632812 L 21.871094 8.632812 C 21.726562 8.632812 21.652344 8.707031 21.652344 8.851562 L 21.652344 13.007812 C 21.492188 12.964844 21.332031 12.929688 21.167969 12.90625 L 21.167969 10.304688 C 21.167969 10.15625 21.097656 10.082031 20.949219 10.082031 L 19.589844 10.082031 C 19.441406 10.082031 19.371094 10.15625 19.371094 10.304688 L 19.371094 13 C 19.207031 13.042969 19.046875 13.097656 18.886719 13.164062 L 18.886719 12.480469 C 18.886719 12.332031 18.8125 12.261719 18.667969 12.261719 L 17.308594 12.261719 C 17.160156 12.257812 17.089844 12.332031 17.089844 12.480469 L 17.089844 14.511719 C 16.660156 15.058594 16.378906 15.671875 16.246094 16.355469 L 2.042969 16.355469 L 2.042969 6.285156 C 2.042969 6.046875 2.125 5.839844 2.296875 5.671875 C 2.464844 5.5 2.671875 5.417969 2.910156 5.417969 Z M 19.980469 8.476562 C 19.980469 8.394531 20.007812 8.324219 20.0625 8.269531 C 20.121094 8.210938 20.191406 8.183594 20.269531 8.183594 C 20.351562 8.183594 20.417969 8.210938 20.476562 8.269531 C 20.53125 8.324219 20.558594 8.394531 20.558594 8.476562 C 20.558594 8.554688 20.53125 8.625 20.476562 8.679688 C 20.417969 8.738281 20.351562 8.765625 20.269531 8.765625 C 20.191406 8.765625 20.121094 8.738281 20.0625 8.679688 C 20.007812 8.625 19.980469 8.554688 19.980469 8.476562 Z M 17.988281 10.359375 C 18.066406 10.359375 18.136719 10.390625 18.191406 10.445312 C 18.25 10.503906 18.277344 10.570312 18.277344 10.652344 C 18.277344 10.730469 18.25 10.800781 18.191406 10.855469 C 18.136719 10.914062 18.066406 10.941406 17.988281 10.941406 C 17.90625 10.941406 17.839844 10.914062 17.78125 10.855469 C 17.726562 10.800781 17.695312 10.730469 17.695312 10.652344 C 17.695312 10.570312 17.726562 10.503906 17.78125 10.445312 C 17.839844 10.390625 17.90625 10.359375 17.988281 10.359375 Z M 15.414062 9.5625 C 15.414062 9.484375 15.441406 9.414062 15.5 9.359375 C 15.554688 9.300781 15.625 9.273438 15.707031 9.273438 C 15.785156 9.273438 15.855469 9.300781 15.910156 9.359375 C 15.96875 9.414062 15.996094 9.484375 15.996094 9.5625 C 15.996094 9.644531 15.96875 9.710938 15.910156 9.769531 C 15.855469 9.824219 15.785156 9.851562 15.707031 9.851562 C 15.625 9.851562 15.558594 9.824219 15.5 9.769531 C 15.441406 9.710938 15.414062 9.644531 15.414062 9.5625 Z M 13.714844 10.652344 C 13.714844 10.730469 13.683594 10.800781 13.628906 10.855469 C 13.570312 10.914062 13.503906 10.941406 13.421875 10.941406 C 13.34375 10.941406 13.273438 10.914062 13.21875 10.855469 C 13.160156 10.800781 13.132812 10.730469 13.132812 10.652344 C 13.132812 10.570312 13.160156 10.503906 13.21875 10.445312 C 13.273438 10.390625 13.34375 10.359375 13.421875 10.359375 C 13.503906 10.359375 13.570312 10.390625 13.628906 10.445312 C 13.683594 10.503906 13.714844 10.570312 13.714844 10.652344 Z M 20.730469 12.859375 C 20.652344 12.855469 20.578125 12.851562 20.5 12.851562 L 20.453125 12.851562 C 20.238281 12.855469 20.023438 12.871094 19.808594 12.90625 L 19.808594 10.523438 L 20.730469 10.523438 Z M 18.449219 13.367188 C 18.113281 13.546875 17.804688 13.765625 17.527344 14.03125 L 17.527344 12.699219 L 18.449219 12.699219 Z M 2.910156 18.261719 C 2.671875 18.261719 2.464844 18.175781 2.296875 18.007812 C 2.128906 17.835938 2.042969 17.632812 2.042969 17.394531 L 2.042969 16.796875 L 16.183594 16.796875 C 16.171875 16.941406 16.164062 17.085938 16.167969 17.230469 C 16.167969 17.582031 16.214844 17.921875 16.300781 18.261719 Z M 17.773438 19.96875 C 17.28125 19.492188 16.941406 18.921875 16.753906 18.261719 C 16.660156 17.921875 16.609375 17.578125 16.605469 17.226562 C 16.605469 17.082031 16.609375 16.9375 16.625 16.796875 C 16.640625 16.648438 16.664062 16.5 16.695312 16.355469 C 16.785156 15.933594 16.945312 15.539062 17.167969 15.171875 C 17.273438 14.992188 17.394531 14.824219 17.527344 14.667969 C 17.585938 14.597656 17.652344 14.527344 17.71875 14.460938 C 17.9375 14.234375 18.179688 14.039062 18.449219 13.875 C 18.589844 13.785156 18.734375 13.707031 18.886719 13.640625 C 19.183594 13.503906 19.488281 13.410156 19.808594 13.355469 C 20.023438 13.316406 20.238281 13.292969 20.457031 13.292969 L 20.5 13.292969 C 20.578125 13.292969 20.652344 13.292969 20.730469 13.296875 C 21.042969 13.320312 21.351562 13.375 21.652344 13.464844 C 21.761719 13.5 21.867188 13.535156 21.972656 13.578125 C 22.011719 13.597656 22.050781 13.613281 22.09375 13.632812 C 22.425781 13.78125 22.734375 13.976562 23.011719 14.214844 C 23.085938 14.273438 23.15625 14.335938 23.222656 14.402344 C 23.304688 14.484375 23.378906 14.5625 23.453125 14.648438 C 23.742188 14.984375 23.964844 15.363281 24.128906 15.777344 C 24.289062 16.191406 24.375 16.621094 24.386719 17.066406 C 24.402344 17.511719 24.339844 17.945312 24.207031 18.367188 C 24.070312 18.792969 23.867188 19.183594 23.601562 19.535156 L 23.597656 19.539062 C 23.5 19.667969 23.394531 19.792969 23.28125 19.910156 C 23.210938 19.980469 23.136719 20.050781 23.058594 20.113281 C 23.011719 20.15625 22.964844 20.199219 22.914062 20.238281 C 22.542969 20.53125 22.128906 20.75 21.679688 20.894531 C 21.226562 21.039062 20.765625 21.097656 20.292969 21.074219 C 19.820312 21.046875 19.367188 20.941406 18.933594 20.75 C 18.5 20.5625 18.113281 20.300781 17.773438 19.96875 Z M 23.378906 20.421875 C 23.378906 20.417969 23.382812 20.417969 23.386719 20.414062 C 23.457031 20.351562 23.527344 20.285156 23.59375 20.21875 C 23.660156 20.148438 23.726562 20.074219 23.789062 20.003906 L 23.792969 19.996094 L 24.171875 20.367188 L 23.757812 20.792969 Z M 27.890625 23.789062 L 27.253906 24.4375 C 27.207031 24.484375 27.148438 24.511719 27.082031 24.511719 C 27.015625 24.511719 26.960938 24.488281 26.914062 24.441406 L 24.625 22.199219 L 25.597656 21.207031 L 27.886719 23.449219 C 28 23.558594 28 23.671875 27.890625 23.789062 Z M 27.890625 23.789062 " fill-opacity="1" fill-rule="nonzero"/></g><path fill="#ea3969" d="M 21.78125 15.96875 L 20.125 18.226562 L 19.160156 17.59375 C 19.039062 17.515625 18.9375 17.535156 18.855469 17.65625 C 18.777344 17.78125 18.796875 17.882812 18.917969 17.960938 L 20.058594 18.710938 C 20.175781 18.785156 20.273438 18.769531 20.355469 18.65625 L 22.132812 16.230469 C 22.222656 16.113281 22.207031 16.007812 22.085938 15.921875 C 21.96875 15.835938 21.867188 15.851562 21.78125 15.96875 Z M 21.78125 15.96875 " fill-opacity="1" fill-rule="nonzero"/><path fill="#ea3969" d="M 5.511719 12.046875 C 5.996094 12.046875 6.441406 11.917969 6.851562 11.65625 C 7.257812 11.394531 7.566406 11.046875 7.769531 10.609375 C 7.972656 10.167969 8.046875 9.710938 7.980469 9.230469 C 7.917969 8.75 7.734375 8.324219 7.421875 7.953125 L 7.546875 7.828125 L 8.039062 7.910156 C 8.050781 7.914062 8.0625 7.914062 8.074219 7.914062 C 8.136719 7.914062 8.1875 7.890625 8.230469 7.847656 L 8.980469 7.097656 C 9.050781 7.03125 9.066406 6.949219 9.03125 6.859375 C 8.992188 6.769531 8.925781 6.726562 8.828125 6.722656 L 8.347656 6.71875 L 8.339844 6.234375 C 8.339844 6.136719 8.292969 6.070312 8.203125 6.035156 C 8.113281 6 8.035156 6.015625 7.964844 6.082031 L 7.214844 6.832031 C 7.164062 6.886719 7.140625 6.949219 7.15625 7.023438 L 7.234375 7.519531 L 7.113281 7.644531 C 6.957031 7.515625 6.792969 7.40625 6.613281 7.316406 C 6.433594 7.230469 6.242188 7.164062 6.046875 7.121094 C 5.851562 7.078125 5.65625 7.058594 5.453125 7.0625 C 5.253906 7.066406 5.058594 7.09375 4.863281 7.144531 C 4.671875 7.199219 4.484375 7.273438 4.308594 7.367188 C 4.132812 7.464844 3.972656 7.582031 3.824219 7.714844 C 3.675781 7.851562 3.546875 8.003906 3.4375 8.167969 C 3.324219 8.335938 3.234375 8.515625 3.167969 8.703125 C 3.097656 8.890625 3.054688 9.085938 3.03125 9.285156 C 3.011719 9.484375 3.011719 9.679688 3.039062 9.878906 C 3.066406 10.078125 3.113281 10.269531 3.1875 10.457031 C 3.261719 10.644531 3.355469 10.820312 3.46875 10.984375 C 3.582031 11.148438 3.714844 11.296875 3.867188 11.429688 C 4.019531 11.558594 4.183594 11.671875 4.359375 11.765625 C 4.539062 11.859375 4.722656 11.925781 4.917969 11.976562 C 5.113281 12.023438 5.3125 12.046875 5.511719 12.046875 Z M 8 7.460938 L 7.929688 7.445312 L 8.21875 7.15625 L 8.304688 7.15625 Z M 7.910156 6.761719 L 7.910156 6.84375 L 7.617188 7.136719 L 7.605469 7.066406 Z M 4.058594 8.101562 C 4.238281 7.921875 4.445312 7.78125 4.675781 7.679688 C 4.90625 7.574219 5.148438 7.515625 5.402344 7.503906 C 5.652344 7.492188 5.902344 7.523438 6.140625 7.601562 C 6.382812 7.679688 6.601562 7.796875 6.800781 7.953125 L 6.503906 8.253906 C 6.394531 8.167969 6.273438 8.101562 6.148438 8.046875 C 6.019531 7.992188 5.890625 7.957031 5.753906 7.933594 C 5.617188 7.914062 5.480469 7.910156 5.34375 7.925781 C 5.207031 7.9375 5.074219 7.96875 4.945312 8.015625 C 4.816406 8.066406 4.695312 8.128906 4.582031 8.207031 C 4.46875 8.28125 4.363281 8.375 4.273438 8.476562 C 4.183594 8.582031 4.109375 8.695312 4.046875 8.816406 C 3.984375 8.941406 3.9375 9.070312 3.90625 9.203125 C 3.878906 9.335938 3.867188 9.472656 3.871094 9.613281 C 3.875 9.75 3.898438 9.882812 3.933594 10.015625 C 3.972656 10.148438 4.027344 10.273438 4.097656 10.390625 C 4.167969 10.511719 4.253906 10.617188 4.351562 10.714844 C 4.445312 10.8125 4.554688 10.898438 4.671875 10.96875 C 4.792969 11.035156 4.917969 11.089844 5.050781 11.128906 C 5.179688 11.167969 5.316406 11.191406 5.453125 11.195312 C 5.589844 11.199219 5.726562 11.1875 5.863281 11.15625 C 5.996094 11.128906 6.125 11.082031 6.25 11.019531 C 6.371094 10.957031 6.484375 10.882812 6.585938 10.789062 C 6.691406 10.699219 6.78125 10.597656 6.859375 10.484375 C 6.9375 10.371094 7 10.25 7.046875 10.121094 C 7.09375 9.992188 7.125 9.859375 7.140625 9.722656 C 7.152344 9.585938 7.152344 9.449219 7.128906 9.3125 C 7.109375 9.175781 7.074219 9.042969 7.019531 8.917969 C 6.964844 8.789062 6.894531 8.671875 6.8125 8.5625 L 7.109375 8.265625 C 7.277344 8.472656 7.398438 8.703125 7.476562 8.957031 C 7.554688 9.210938 7.582031 9.472656 7.554688 9.738281 C 7.53125 10.003906 7.460938 10.253906 7.339844 10.488281 C 7.21875 10.726562 7.058594 10.933594 6.855469 11.105469 C 6.65625 11.28125 6.429688 11.410156 6.175781 11.496094 C 5.925781 11.582031 5.667969 11.621094 5.402344 11.605469 C 5.136719 11.589844 4.882812 11.527344 4.640625 11.414062 C 4.398438 11.300781 4.1875 11.148438 4.007812 10.953125 C 3.828125 10.757812 3.6875 10.535156 3.59375 10.289062 C 3.496094 10.039062 3.453125 9.78125 3.457031 9.515625 C 3.460938 9.25 3.515625 8.996094 3.621094 8.75 C 3.722656 8.507812 3.871094 8.289062 4.058594 8.101562 Z M 6.710938 9.554688 C 6.710938 9.734375 6.671875 9.90625 6.59375 10.070312 C 6.519531 10.234375 6.410156 10.371094 6.269531 10.484375 C 6.128906 10.601562 5.972656 10.679688 5.796875 10.722656 C 5.625 10.765625 5.449219 10.769531 5.269531 10.734375 C 5.09375 10.699219 4.933594 10.628906 4.789062 10.519531 C 4.644531 10.410156 4.53125 10.277344 4.445312 10.117188 C 4.359375 9.957031 4.316406 9.789062 4.308594 9.609375 C 4.300781 9.429688 4.332031 9.253906 4.402344 9.089844 C 4.472656 8.921875 4.574219 8.78125 4.707031 8.660156 C 4.84375 8.539062 4.996094 8.453125 5.171875 8.402344 C 5.34375 8.355469 5.519531 8.34375 5.699219 8.371094 C 5.875 8.398438 6.039062 8.464844 6.1875 8.566406 L 5.882812 8.871094 C 5.773438 8.808594 5.65625 8.777344 5.527344 8.773438 C 5.402344 8.769531 5.28125 8.796875 5.167969 8.851562 C 5.054688 8.90625 4.957031 8.984375 4.882812 9.085938 C 4.804688 9.1875 4.757812 9.300781 4.738281 9.425781 C 4.714844 9.550781 4.726562 9.675781 4.761719 9.796875 C 4.800781 9.914062 4.867188 10.019531 4.957031 10.109375 C 5.046875 10.199219 5.148438 10.261719 5.269531 10.300781 C 5.390625 10.339844 5.515625 10.347656 5.640625 10.328125 C 5.765625 10.308594 5.875 10.257812 5.976562 10.183594 C 6.078125 10.105469 6.15625 10.011719 6.210938 9.898438 C 6.269531 9.785156 6.292969 9.664062 6.289062 9.539062 C 6.289062 9.410156 6.253906 9.292969 6.195312 9.179688 L 6.5 8.878906 C 6.640625 9.082031 6.710938 9.304688 6.710938 9.554688 Z M 5.753906 9.796875 C 5.714844 9.835938 5.664062 9.867188 5.609375 9.882812 C 5.554688 9.898438 5.5 9.902344 5.445312 9.890625 C 5.386719 9.878906 5.335938 9.855469 5.292969 9.820312 C 5.25 9.785156 5.214844 9.738281 5.195312 9.6875 C 5.171875 9.632812 5.164062 9.578125 5.167969 9.519531 C 5.175781 9.464844 5.195312 9.410156 5.226562 9.363281 C 5.257812 9.316406 5.296875 9.277344 5.347656 9.25 C 5.398438 9.222656 5.453125 9.210938 5.511719 9.210938 C 5.519531 9.210938 5.53125 9.214844 5.539062 9.214844 L 5.355469 9.398438 C 5.25 9.503906 5.25 9.605469 5.355469 9.710938 C 5.460938 9.8125 5.5625 9.8125 5.667969 9.710938 L 5.847656 9.527344 C 5.859375 9.632812 5.828125 9.722656 5.753906 9.796875 Z M 5.753906 9.796875 " fill-opacity="1" fill-rule="nonzero"/></svg>