<svg xmlns="http://www.w3.org/2000/svg" xmlns:xlink="http://www.w3.org/1999/xlink" width="40" zoomAndPan="magnify" viewBox="0 0 30 30.000001" height="40" preserveAspectRatio="xMidYMid meet" version="1.0"><defs><clipPath id="53233f51e3"><path d="M 1.667969 1.917969 L 26.34375 1.917969 L 26.34375 27.320312 L 1.667969 27.320312 Z M 1.667969 1.917969 " clip-rule="nonzero"/></clipPath></defs><g clip-path="url(#53233f51e3)"><path fill="#ea3969" d="M 17.964844 3.085938 C 17.257812 3.085938 16.679688 3.664062 16.679688 4.375 C 16.679688 5.085938 17.257812 5.664062 17.964844 5.664062 C 18.675781 5.664062 19.253906 5.085938 19.253906 4.375 C 19.253906 3.664062 18.675781 3.085938 17.964844 3.085938 Z M 17.964844 4.96875 C 17.640625 4.96875 17.375 4.703125 17.375 4.375 C 17.375 4.046875 17.640625 3.78125 17.964844 3.78125 C 18.292969 3.78125 18.558594 4.046875 18.558594 4.375 C 18.558594 4.703125 18.292969 4.96875 17.964844 4.96875 Z M 16.949219 11.453125 C 16.949219 11.261719 17.105469 11.105469 17.296875 11.105469 L 22.910156 11.105469 C 23.101562 11.105469 23.257812 11.261719 23.257812 11.453125 C 23.257812 11.644531 23.101562 11.800781 22.910156 11.800781 L 17.296875 11.800781 C 17.105469 11.800781 16.949219 11.644531 16.949219 11.453125 Z M 16.949219 13.308594 C 16.949219 13.117188 17.105469 12.960938 17.296875 12.960938 L 22.910156 12.960938 C 23.101562 12.960938 23.257812 13.117188 23.257812 13.308594 C 23.257812 13.5 23.101562 13.65625 22.910156 13.65625 L 17.296875 13.65625 C 17.105469 13.65625 16.949219 13.5 16.949219 13.308594 Z M 12.394531 23.492188 L 14.21875 23.492188 C 14.410156 23.492188 14.566406 23.339844 14.566406 23.148438 L 14.566406 20.828125 C 14.566406 20.636719 14.410156 20.484375 14.21875 20.484375 L 12.394531 20.484375 C 12.203125 20.484375 12.046875 20.636719 12.046875 20.828125 L 12.046875 23.148438 C 12.046875 23.339844 12.203125 23.492188 12.394531 23.492188 Z M 12.742188 21.175781 L 13.871094 21.175781 L 13.871094 22.800781 L 12.742188 22.800781 Z M 15.5 23.492188 L 17.324219 23.492188 C 17.515625 23.492188 17.671875 23.339844 17.671875 23.148438 L 17.671875 18.5 C 17.671875 18.308594 17.515625 18.152344 17.324219 18.152344 L 15.5 18.152344 C 15.308594 18.152344 15.15625 18.308594 15.15625 18.5 L 15.15625 23.148438 C 15.15625 23.339844 15.308594 23.492188 15.5 23.492188 Z M 15.847656 18.847656 L 16.976562 18.847656 L 16.976562 22.800781 L 15.847656 22.800781 Z M 18.609375 18.902344 C 18.417969 18.902344 18.261719 19.058594 18.261719 19.25 L 18.261719 23.148438 C 18.261719 23.339844 18.417969 23.492188 18.609375 23.492188 L 20.429688 23.492188 C 20.625 23.492188 20.777344 23.339844 20.777344 23.148438 L 20.777344 19.25 C 20.777344 19.058594 20.625 18.902344 20.429688 18.902344 Z M 20.085938 22.800781 L 18.957031 22.800781 L 18.957031 19.597656 L 20.085938 19.597656 Z M 21.367188 15.789062 L 21.367188 23.148438 C 21.367188 23.339844 21.523438 23.492188 21.714844 23.492188 L 23.539062 23.492188 C 23.730469 23.492188 23.886719 23.339844 23.886719 23.148438 L 23.886719 15.789062 C 23.886719 15.597656 23.730469 15.441406 23.539062 15.441406 L 21.714844 15.441406 C 21.523438 15.441406 21.367188 15.597656 21.367188 15.789062 Z M 22.0625 16.136719 L 23.191406 16.136719 L 23.191406 22.800781 L 22.0625 22.800781 Z M 11.542969 23.949219 L 24.390625 23.949219 C 24.582031 23.949219 24.738281 24.105469 24.738281 24.296875 C 24.738281 24.488281 24.582031 24.640625 24.390625 24.640625 L 11.542969 24.640625 C 11.351562 24.640625 11.195312 24.488281 11.195312 24.296875 C 11.195312 24.105469 11.347656 23.949219 11.542969 23.949219 Z M 2.023438 8.980469 L 7.382812 8.980469 C 7.476562 8.980469 7.5625 8.945312 7.628906 8.878906 C 7.691406 8.816406 7.730469 8.726562 7.730469 8.632812 L 7.730469 3.273438 C 7.730469 3.179688 7.691406 3.089844 7.625 3.023438 C 7.5625 2.960938 7.472656 2.925781 7.382812 2.925781 C 7.382812 2.925781 7.378906 2.925781 7.378906 2.925781 C 5.945312 2.945312 4.492188 3.582031 3.398438 4.667969 C 2.296875 5.765625 1.667969 7.210938 1.675781 8.632812 C 1.675781 8.824219 1.832031 8.980469 2.023438 8.980469 Z M 7.035156 3.636719 L 7.035156 8.285156 L 2.382812 8.285156 C 2.5625 5.949219 4.65625 3.859375 7.035156 3.636719 Z M 3.101562 10.0625 L 3.101562 10.074219 C 3.105469 13.214844 5.667969 15.769531 8.808594 15.769531 C 8.988281 15.769531 9.167969 15.761719 9.34375 15.746094 L 9.34375 24.738281 C 9.34375 26.042969 10.40625 27.105469 11.710938 27.105469 L 24.222656 27.105469 C 25.527344 27.105469 26.589844 26.042969 26.589844 24.738281 L 26.589844 7.59375 C 26.589844 6.289062 25.527344 5.226562 24.222656 5.226562 L 21.941406 5.226562 L 21.941406 3.613281 C 21.941406 3.421875 21.785156 3.265625 21.59375 3.265625 L 20.199219 3.265625 C 19.988281 2.484375 19.082031 1.917969 17.964844 1.917969 C 16.847656 1.917969 15.945312 2.484375 15.734375 3.265625 L 14.339844 3.265625 C 14.148438 3.265625 13.992188 3.421875 13.992188 3.613281 L 13.992188 5.226562 L 11.84375 5.226562 C 10.964844 4.675781 9.921875 4.355469 8.808594 4.355469 C 8.617188 4.355469 8.464844 4.507812 8.464844 4.703125 L 8.464844 9.714844 L 3.449219 9.714844 C 3.257812 9.714844 3.101562 9.871094 3.101562 10.0625 Z M 14.6875 3.960938 L 16.035156 3.960938 C 16.226562 3.960938 16.382812 3.804688 16.382812 3.613281 C 16.382812 3.070312 17.109375 2.609375 17.964844 2.609375 C 18.824219 2.609375 19.550781 3.070312 19.550781 3.613281 C 19.550781 3.804688 19.707031 3.960938 19.898438 3.960938 L 21.246094 3.960938 L 21.246094 6.339844 L 14.6875 6.339844 Z M 13.992188 5.921875 L 13.992188 6.6875 C 13.992188 6.878906 14.148438 7.03125 14.339844 7.03125 L 21.59375 7.03125 C 21.785156 7.03125 21.941406 6.878906 21.941406 6.6875 L 21.941406 5.921875 L 24.222656 5.921875 C 25.144531 5.921875 25.894531 6.671875 25.894531 7.59375 L 25.894531 24.738281 C 25.894531 25.660156 25.144531 26.410156 24.222656 26.410156 L 11.710938 26.410156 C 10.789062 26.410156 10.035156 25.660156 10.035156 24.738281 L 10.035156 15.636719 C 11.320312 15.355469 12.441406 14.640625 13.242188 13.65625 L 15.539062 13.65625 C 15.734375 13.65625 15.886719 13.5 15.886719 13.308594 C 15.886719 13.117188 15.734375 12.960938 15.539062 12.960938 L 13.726562 12.960938 C 13.941406 12.597656 14.117188 12.210938 14.25 11.800781 L 15.539062 11.800781 C 15.734375 11.800781 15.886719 11.644531 15.886719 11.453125 C 15.886719 11.261719 15.734375 11.105469 15.539062 11.105469 L 14.421875 11.105469 C 14.488281 10.769531 14.519531 10.417969 14.519531 10.0625 C 14.519531 9.9375 14.515625 9.816406 14.507812 9.695312 L 22.910156 9.695312 C 23.101562 9.695312 23.257812 9.539062 23.257812 9.347656 C 23.257812 9.15625 23.101562 9 22.910156 9 L 14.421875 9 C 14.195312 7.800781 13.589844 6.730469 12.738281 5.921875 Z M 8.808594 10.410156 C 9.003906 10.410156 9.15625 10.253906 9.15625 10.0625 L 9.15625 5.058594 C 11.761719 5.238281 13.824219 7.414062 13.824219 10.0625 C 13.824219 12.828125 11.574219 15.078125 8.808594 15.078125 C 6.164062 15.078125 3.988281 13.011719 3.808594 10.410156 Z M 8.808594 10.410156 " fill-opacity="1" fill-rule="nonzero"/></g></svg>