<svg xmlns="http://www.w3.org/2000/svg" xmlns:xlink="http://www.w3.org/1999/xlink" width="40" zoomAndPan="magnify" viewBox="0 0 30 37.92" height="40" preserveAspectRatio="xMidYMid meet" version="1.0"><defs><clipPath id="7a6aa35850"><path d="M 7.238281 0.726562 L 22.953125 0.726562 L 22.953125 29.167969 L 7.238281 29.167969 Z M 7.238281 0.726562 " clip-rule="nonzero"/></clipPath></defs><g clip-path="url(#7a6aa35850)"><path fill="#ea3969" d="M 18.226562 17.730469 C 19.855469 17.738281 21.144531 16.347656 21.050781 14.730469 C 22.195312 14.625 22.828125 13.625 22.710938 12.515625 C 22.710938 11.570312 21.976562 10.796875 21.050781 10.722656 L 21.050781 9.851562 C 21.050781 8.292969 19.785156 7.027344 18.226562 7.027344 L 17.074219 7.027344 L 17.027344 6.769531 L 18.710938 5.125 C 18.78125 5.058594 18.808594 4.957031 18.777344 4.863281 C 18.746094 4.773438 18.671875 4.707031 18.574219 4.691406 L 16.238281 4.351562 L 15.199219 2.238281 C 15.160156 2.152344 15.070312 2.097656 14.972656 2.097656 C 14.875 2.097656 14.785156 2.152344 14.742188 2.238281 C 14.742188 2.238281 13.699219 4.351562 13.699219 4.351562 L 11.363281 4.691406 C 11.269531 4.707031 11.191406 4.773438 11.160156 4.863281 C 11.128906 4.957031 11.160156 5.058594 11.226562 5.125 L 12.910156 6.769531 L 12.867188 7.027344 L 11.710938 7.027344 C 10.152344 7.027344 8.886719 8.292969 8.886719 9.851562 L 8.886719 10.722656 C 7.742188 10.828125 7.109375 11.824219 7.226562 12.933594 C 7.226562 13.878906 7.960938 14.652344 8.886719 14.730469 C 8.796875 16.347656 10.082031 17.738281 11.710938 17.730469 C 11.710938 17.730469 12.609375 17.730469 12.609375 17.730469 L 12.609375 18.628906 C 11.386719 18.628906 8.730469 18.628906 7.484375 18.628906 C 7.339844 18.628906 7.226562 18.738281 7.226562 18.882812 L 7.226562 21.851562 C 7.238281 22.230469 7.753906 22.078125 8.058594 22.109375 L 8.058594 26.507812 C 8.058594 26.652344 8.167969 26.761719 8.3125 26.761719 L 10.453125 26.761719 C 10.582031 26.761719 10.675781 26.671875 10.699219 26.554688 C 11.511719 28.199219 13.347656 29.15625 15.242188 28.996094 C 16.980469 28.996094 18.492188 28 19.234375 26.554688 C 19.253906 26.671875 19.359375 26.761719 19.480469 26.761719 L 21.621094 26.761719 C 21.765625 26.761719 21.875 26.652344 21.875 26.507812 L 21.875 22.109375 C 22.179688 22.078125 22.691406 22.230469 22.707031 21.851562 C 22.707031 21.851562 22.707031 18.882812 22.707031 18.882812 C 22.707031 18.738281 22.59375 18.628906 22.449219 18.628906 C 21.203125 18.628906 18.554688 18.628906 17.324219 18.628906 L 17.324219 17.730469 Z M 22.207031 12.523438 L 22.207031 12.933594 C 22.207031 13.601562 21.703125 14.15625 21.058594 14.230469 L 21.058594 11.222656 C 21.703125 11.300781 22.207031 11.851562 22.207031 12.523438 Z M 11.953125 5.125 L 13.910156 4.839844 C 13.988281 4.828125 14.0625 4.773438 14.101562 4.703125 L 14.976562 2.929688 L 15.847656 4.695312 C 15.882812 4.773438 15.953125 4.824219 16.039062 4.835938 L 18 5.121094 L 16.585938 6.492188 C 16.523438 6.550781 16.5 6.636719 16.511719 6.714844 L 16.84375 8.660156 L 15.097656 7.738281 C 15.023438 7.699219 14.9375 7.699219 14.859375 7.738281 L 13.109375 8.660156 L 13.441406 6.714844 C 13.457031 6.636719 13.425781 6.550781 13.367188 6.492188 L 11.953125 5.121094 Z M 7.738281 12.933594 L 7.738281 12.523438 C 7.738281 11.855469 8.242188 11.300781 8.886719 11.222656 L 8.886719 14.230469 C 8.242188 14.15625 7.738281 13.605469 7.738281 12.933594 Z M 9.394531 14.910156 C 9.394531 14.792969 9.394531 11.1875 9.394531 10.960938 C 9.394531 10.960938 9.394531 9.851562 9.394531 9.851562 C 9.394531 8.574219 10.433594 7.535156 11.710938 7.535156 L 12.777344 7.535156 L 12.515625 9.09375 C 12.5 9.1875 12.539062 9.285156 12.617188 9.34375 C 12.691406 9.398438 12.800781 9.410156 12.886719 9.363281 L 14.972656 8.261719 L 17.054688 9.363281 C 17.140625 9.410156 17.242188 9.398438 17.324219 9.34375 C 17.398438 9.285156 17.4375 9.1875 17.425781 9.09375 L 17.160156 7.535156 L 18.226562 7.535156 C 19.503906 7.535156 20.542969 8.574219 20.542969 9.851562 L 20.542969 14.492188 C 20.699219 15.910156 19.699219 17.226562 18.226562 17.222656 C 17.46875 17.222656 13.699219 17.222656 12.867188 17.222656 C 12.855469 17.226562 11.726562 17.222656 11.710938 17.222656 C 10.433594 17.222656 9.394531 16.183594 9.394531 14.910156 Z M 7.738281 19.136719 L 10.199219 19.136719 L 10.199219 21.597656 L 7.738281 21.597656 Z M 10.199219 26.253906 L 8.566406 26.253906 L 8.566406 22.109375 L 10.199219 22.109375 Z M 21.378906 26.253906 L 19.746094 26.253906 L 19.746094 22.109375 L 21.378906 22.109375 Z M 22.207031 21.605469 L 19.746094 21.605469 L 19.746094 19.140625 L 22.207031 19.140625 Z M 19.234375 21.859375 L 19.234375 24.503906 C 19.25 26.941406 17.078125 28.726562 14.703125 28.492188 C 12.503906 28.492188 10.714844 26.703125 10.714844 24.503906 C 10.714844 23.171875 10.714844 20.472656 10.714844 19.140625 L 19.234375 19.140625 Z M 16.824219 18.628906 L 13.121094 18.628906 L 13.121094 17.730469 L 16.824219 17.730469 Z M 19.597656 14.765625 L 19.597656 10.808594 C 19.597656 10.253906 19.144531 9.804688 18.59375 9.804688 L 11.347656 9.804688 C 10.792969 9.804688 10.347656 10.257812 10.347656 10.808594 L 10.347656 14.765625 C 10.347656 15.320312 10.800781 15.769531 11.347656 15.769531 L 18.59375 15.769531 C 19.148438 15.769531 19.597656 15.320312 19.597656 14.765625 Z M 10.855469 14.765625 L 10.855469 10.808594 C 10.855469 10.53125 11.078125 10.3125 11.347656 10.3125 L 18.59375 10.3125 C 18.867188 10.3125 19.089844 10.539062 19.089844 10.808594 L 19.089844 14.765625 C 19.089844 15.039062 18.863281 15.257812 18.59375 15.257812 L 11.347656 15.257812 C 11.074219 15.257812 10.855469 15.035156 10.855469 14.765625 Z M 12.808594 11.328125 C 10.886719 11.378906 10.886719 14.195312 12.808594 14.242188 C 14.734375 14.191406 14.734375 11.371094 12.808594 11.328125 Z M 12.808594 13.738281 C 11.558594 13.707031 11.558594 11.871094 12.808594 11.839844 C 14.0625 11.871094 14.0625 13.707031 12.808594 13.738281 Z M 17.132812 11.328125 C 15.210938 11.378906 15.210938 14.195312 17.132812 14.242188 C 19.058594 14.191406 19.058594 11.371094 17.132812 11.328125 Z M 17.132812 13.738281 C 15.882812 13.707031 15.882812 11.871094 17.132812 11.839844 C 18.386719 11.871094 18.386719 13.707031 17.132812 13.738281 Z M 10.238281 1.792969 L 10.894531 1.792969 L 10.894531 1.136719 C 10.894531 0.992188 11.007812 0.882812 11.152344 0.882812 C 11.292969 0.882812 11.40625 0.992188 11.40625 1.136719 L 11.40625 1.792969 L 12.0625 1.792969 C 12.203125 1.792969 12.316406 1.902344 12.316406 2.046875 C 12.316406 2.1875 12.203125 2.300781 12.0625 2.300781 L 11.40625 2.300781 L 11.40625 2.957031 C 11.40625 3.097656 11.292969 3.210938 11.152344 3.210938 C 11.007812 3.210938 10.894531 3.097656 10.894531 2.957031 L 10.894531 2.300781 L 10.238281 2.300781 C 9.910156 2.300781 9.910156 1.792969 10.238281 1.792969 Z M 17.882812 1.792969 L 18.539062 1.792969 L 18.539062 1.136719 C 18.539062 0.992188 18.648438 0.882812 18.792969 0.882812 C 18.933594 0.882812 19.046875 0.992188 19.046875 1.136719 L 19.046875 1.792969 L 19.703125 1.792969 C 19.847656 1.792969 19.957031 1.902344 19.957031 2.046875 C 19.957031 2.1875 19.847656 2.300781 19.703125 2.300781 L 19.046875 2.300781 L 19.046875 2.957031 C 19.046875 3.097656 18.933594 3.210938 18.792969 3.210938 C 18.648438 3.210938 18.539062 3.097656 18.539062 2.957031 L 18.539062 2.300781 L 17.882812 2.300781 C 17.550781 2.300781 17.550781 1.792969 17.882812 1.792969 Z M 11.800781 21.472656 L 11.800781 22.875 C 11.800781 23.019531 11.914062 23.128906 12.054688 23.128906 L 17.886719 23.128906 C 18.03125 23.128906 18.140625 23.019531 18.140625 22.875 L 18.140625 21.472656 C 18.140625 21.328125 18.03125 21.21875 17.886719 21.21875 L 12.054688 21.21875 C 11.914062 21.21875 11.800781 21.328125 11.800781 21.472656 Z M 12.3125 21.726562 L 17.632812 21.726562 L 17.632812 22.621094 L 12.3125 22.621094 Z M 12.3125 21.726562 " fill-opacity="1" fill-rule="nonzero"/></g></svg>