<svg xmlns="http://www.w3.org/2000/svg" xmlns:xlink="http://www.w3.org/1999/xlink" width="92" zoomAndPan="magnify" viewBox="0 0 69.119995 59.039997" height="68" preserveAspectRatio="xMidYMid meet" version="1.0"><defs><clipPath id="8710ce8e73"><path d="M 11.671875 2.699219 L 56.691406 2.699219 L 56.691406 47.714844 L 11.671875 47.714844 Z M 11.671875 2.699219 " clip-rule="nonzero"/></clipPath></defs><g clip-path="url(#8710ce8e73)"><path fill="#ea3969" d="M 55.828125 42.902344 L 55.097656 42.902344 C 54.644531 41.484375 53.765625 40.214844 52.589844 39.277344 C 51.953125 38.773438 51.238281 38.375 50.480469 38.097656 C 51.648438 37.28125 52.414062 35.929688 52.414062 34.398438 C 52.414062 31.910156 50.390625 29.886719 47.90625 29.886719 C 45.417969 29.886719 43.394531 31.910156 43.394531 34.398438 C 43.394531 35.929688 44.160156 37.28125 45.332031 38.097656 C 44.574219 38.375 43.855469 38.773438 43.21875 39.277344 C 42.25 40.050781 41.480469 41.050781 40.988281 42.171875 C 40.492188 41.050781 39.726562 40.050781 38.757812 39.277344 C 38.117188 38.773438 37.402344 38.375 36.644531 38.097656 C 37.816406 37.28125 38.582031 35.929688 38.582031 34.398438 C 38.582031 31.910156 36.558594 29.886719 34.070312 29.886719 C 31.585938 29.886719 29.5625 31.910156 29.5625 34.398438 C 29.5625 35.929688 30.328125 37.28125 31.496094 38.097656 C 30.738281 38.375 30.023438 38.773438 29.382812 39.277344 C 28.414062 40.050781 27.648438 41.050781 27.152344 42.171875 C 26.65625 41.050781 25.890625 40.050781 24.921875 39.277344 C 24.28125 38.773438 23.566406 38.375 22.808594 38.097656 C 23.976562 37.28125 24.746094 35.929688 24.746094 34.398438 C 24.746094 31.910156 22.722656 29.886719 20.234375 29.886719 C 17.746094 29.886719 15.722656 31.910156 15.722656 34.398438 C 15.722656 35.929688 16.492188 37.28125 17.660156 38.097656 C 16.902344 38.375 16.1875 38.773438 15.550781 39.277344 C 14.371094 40.214844 13.496094 41.484375 13.042969 42.902344 L 12.3125 42.902344 C 11.960938 42.902344 11.675781 43.183594 11.675781 43.535156 L 11.675781 46.847656 C 11.675781 47.195312 11.960938 47.480469 12.3125 47.480469 L 55.828125 47.480469 C 56.179688 47.480469 56.464844 47.195312 56.464844 46.847656 L 56.464844 43.535156 C 56.464844 43.183594 56.179688 42.902344 55.828125 42.902344 Z M 44.664062 34.398438 C 44.664062 32.609375 46.117188 31.15625 47.90625 31.15625 C 49.691406 31.15625 51.144531 32.609375 51.144531 34.398438 C 51.144531 36.183594 49.691406 37.640625 47.90625 37.640625 C 46.117188 37.640625 44.664062 36.183594 44.664062 34.398438 Z M 47.90625 38.910156 C 50.523438 38.910156 52.820312 40.515625 53.753906 42.902344 L 42.054688 42.902344 C 42.988281 40.515625 45.289062 38.910156 47.90625 38.910156 Z M 30.832031 34.398438 C 30.832031 32.609375 32.285156 31.15625 34.070312 31.15625 C 35.859375 31.15625 37.3125 32.609375 37.3125 34.398438 C 37.3125 36.183594 35.859375 37.640625 34.070312 37.640625 C 32.285156 37.640625 30.832031 36.183594 30.832031 34.398438 Z M 34.070312 38.910156 C 36.6875 38.910156 38.988281 40.515625 39.917969 42.902344 L 28.21875 42.902344 C 29.15625 40.515625 31.457031 38.910156 34.070312 38.910156 Z M 16.992188 34.398438 C 16.992188 32.609375 18.449219 31.15625 20.234375 31.15625 C 22.019531 31.15625 23.476562 32.609375 23.476562 34.398438 C 23.476562 36.183594 22.019531 37.640625 20.234375 37.640625 C 18.449219 37.640625 16.992188 36.183594 16.992188 34.398438 Z M 20.234375 38.910156 C 22.851562 38.910156 25.152344 40.515625 26.085938 42.902344 L 14.386719 42.902344 C 15.316406 40.515625 17.617188 38.910156 20.234375 38.910156 Z M 55.195312 46.210938 L 12.945312 46.210938 L 12.945312 44.171875 L 13.515625 44.171875 C 13.519531 44.171875 13.519531 44.171875 13.519531 44.171875 C 13.519531 44.171875 13.519531 44.171875 13.523438 44.171875 L 40.785156 44.171875 C 40.785156 44.171875 40.789062 44.171875 40.789062 44.171875 L 54.617188 44.171875 C 54.617188 44.171875 54.621094 44.171875 54.621094 44.171875 L 55.195312 44.171875 Z M 44.4375 18 C 44.4375 17.648438 44.722656 17.367188 45.074219 17.367188 L 47.90625 17.367188 C 48.257812 17.367188 48.539062 17.648438 48.539062 18 L 48.539062 24.355469 L 48.882812 23.757812 C 49.058594 23.453125 49.449219 23.351562 49.75 23.527344 C 50.054688 23.703125 50.160156 24.089844 49.984375 24.394531 L 48.457031 27.042969 C 48.453125 27.046875 48.449219 27.046875 48.449219 27.050781 C 48.4375 27.070312 48.425781 27.085938 48.414062 27.101562 C 48.410156 27.109375 48.40625 27.113281 48.402344 27.117188 C 48.386719 27.136719 48.371094 27.15625 48.355469 27.175781 C 48.351562 27.175781 48.351562 27.175781 48.351562 27.175781 C 48.335938 27.195312 48.316406 27.210938 48.296875 27.222656 C 48.292969 27.226562 48.285156 27.230469 48.28125 27.234375 C 48.265625 27.246094 48.25 27.257812 48.230469 27.269531 C 48.226562 27.273438 48.222656 27.273438 48.21875 27.277344 C 48.175781 27.300781 48.128906 27.320312 48.078125 27.335938 C 48.070312 27.335938 48.066406 27.339844 48.058594 27.339844 C 48.042969 27.34375 48.023438 27.347656 48.003906 27.351562 C 47.996094 27.351562 47.988281 27.355469 47.980469 27.355469 C 47.957031 27.359375 47.929688 27.359375 47.90625 27.359375 C 47.878906 27.359375 47.855469 27.359375 47.828125 27.355469 C 47.820312 27.355469 47.816406 27.351562 47.808594 27.351562 C 47.789062 27.347656 47.769531 27.34375 47.75 27.339844 C 47.746094 27.339844 47.738281 27.335938 47.734375 27.335938 C 47.683594 27.320312 47.636719 27.300781 47.59375 27.277344 C 47.589844 27.273438 47.582031 27.273438 47.578125 27.269531 C 47.5625 27.257812 47.546875 27.246094 47.53125 27.234375 C 47.523438 27.230469 47.519531 27.226562 47.511719 27.222656 C 47.496094 27.210938 47.476562 27.195312 47.460938 27.175781 C 47.457031 27.175781 47.457031 27.175781 47.457031 27.175781 C 47.4375 27.15625 47.421875 27.136719 47.40625 27.117188 C 47.402344 27.113281 47.398438 27.109375 47.394531 27.101562 C 47.382812 27.085938 47.371094 27.070312 47.363281 27.050781 C 47.359375 27.046875 47.355469 27.046875 47.355469 27.042969 L 45.828125 24.394531 C 45.652344 24.089844 45.753906 23.703125 46.058594 23.527344 C 46.363281 23.351562 46.75 23.453125 46.925781 23.757812 L 47.269531 24.355469 L 47.269531 18.636719 L 45.074219 18.636719 C 44.722656 18.636719 44.4375 18.351562 44.4375 18 Z M 27.472656 26.410156 L 32.761719 26.410156 C 33.265625 26.410156 33.726562 26.214844 34.070312 25.898438 C 34.417969 26.214844 34.875 26.410156 35.382812 26.410156 L 40.667969 26.410156 C 41.808594 26.410156 42.738281 25.480469 42.738281 24.339844 L 42.738281 20.160156 C 42.738281 16.863281 40.46875 14.082031 37.40625 13.304688 C 38.914062 12.25 39.902344 10.5 39.902344 8.523438 C 39.902344 5.308594 37.285156 2.695312 34.070312 2.695312 C 30.855469 2.695312 28.238281 5.308594 28.238281 8.523438 C 28.238281 10.5 29.226562 12.25 30.734375 13.304688 C 27.675781 14.085938 25.402344 16.863281 25.402344 20.160156 L 25.402344 24.339844 C 25.402344 25.480469 26.332031 26.410156 27.472656 26.410156 Z M 32.761719 25.140625 L 27.472656 25.140625 C 27.03125 25.140625 26.671875 24.78125 26.671875 24.339844 L 26.671875 22.78125 L 32.761719 22.78125 C 33.132812 22.78125 33.4375 23.085938 33.4375 23.460938 L 33.4375 24.464844 C 33.4375 24.835938 33.132812 25.140625 32.761719 25.140625 Z M 41.46875 24.339844 C 41.46875 24.773438 41.101562 25.140625 40.667969 25.140625 L 35.382812 25.140625 C 35.007812 25.140625 34.707031 24.835938 34.707031 24.464844 L 34.707031 23.460938 C 34.707031 23.085938 35.007812 22.78125 35.382812 22.78125 L 41.46875 22.78125 Z M 29.507812 8.523438 C 29.507812 6.007812 31.554688 3.964844 34.070312 3.964844 C 36.585938 3.964844 38.632812 6.007812 38.632812 8.523438 C 38.632812 11.042969 36.585938 13.089844 34.070312 13.089844 C 31.554688 13.089844 29.507812 11.042969 29.507812 8.523438 Z M 32.476562 14.359375 L 35.667969 14.359375 C 38.867188 14.359375 41.46875 16.960938 41.46875 20.160156 L 41.46875 21.511719 L 39.171875 21.511719 L 39.171875 19.085938 C 39.171875 18.738281 38.886719 18.453125 38.539062 18.453125 C 38.1875 18.453125 37.902344 18.738281 37.902344 19.085938 L 37.902344 21.511719 L 35.382812 21.511719 C 34.875 21.511719 34.417969 21.707031 34.070312 22.027344 C 33.726562 21.707031 33.265625 21.511719 32.761719 21.511719 L 30.238281 21.511719 L 30.238281 19.085938 C 30.238281 18.738281 29.957031 18.453125 29.605469 18.453125 C 29.253906 18.453125 28.96875 18.738281 28.96875 19.085938 L 28.96875 21.511719 L 26.671875 21.511719 L 26.671875 20.160156 C 26.671875 16.960938 29.277344 14.359375 32.476562 14.359375 Z M 18.15625 24.394531 C 17.980469 24.089844 18.085938 23.703125 18.386719 23.527344 C 18.691406 23.351562 19.078125 23.453125 19.253906 23.757812 L 19.601562 24.355469 L 19.601562 18 C 19.601562 17.648438 19.882812 17.367188 20.234375 17.367188 L 23.066406 17.367188 C 23.417969 17.367188 23.703125 17.648438 23.703125 18 C 23.703125 18.351562 23.417969 18.636719 23.066406 18.636719 L 20.871094 18.636719 L 20.871094 24.359375 L 21.214844 23.757812 C 21.390625 23.453125 21.78125 23.351562 22.082031 23.527344 C 22.386719 23.703125 22.492188 24.089844 22.316406 24.394531 L 20.785156 27.042969 C 20.78125 27.046875 20.78125 27.046875 20.777344 27.050781 C 20.765625 27.070312 20.757812 27.085938 20.742188 27.101562 C 20.738281 27.109375 20.734375 27.113281 20.730469 27.117188 C 20.714844 27.136719 20.699219 27.15625 20.683594 27.175781 C 20.679688 27.175781 20.679688 27.175781 20.679688 27.179688 C 20.664062 27.195312 20.644531 27.210938 20.625 27.222656 C 20.621094 27.226562 20.617188 27.230469 20.609375 27.238281 C 20.59375 27.25 20.578125 27.257812 20.5625 27.269531 C 20.554688 27.273438 20.550781 27.273438 20.546875 27.277344 C 20.523438 27.289062 20.5 27.300781 20.476562 27.3125 C 20.453125 27.320312 20.429688 27.328125 20.40625 27.335938 C 20.402344 27.335938 20.394531 27.339844 20.390625 27.339844 C 20.371094 27.34375 20.351562 27.347656 20.332031 27.351562 C 20.324219 27.351562 20.316406 27.355469 20.3125 27.355469 C 20.285156 27.359375 20.261719 27.359375 20.234375 27.359375 C 20.207031 27.359375 20.183594 27.359375 20.15625 27.355469 C 20.152344 27.355469 20.144531 27.351562 20.136719 27.351562 C 20.117188 27.347656 20.097656 27.34375 20.078125 27.339844 C 20.074219 27.339844 20.066406 27.335938 20.0625 27.335938 C 20.039062 27.328125 20.015625 27.320312 19.992188 27.3125 C 19.96875 27.300781 19.945312 27.289062 19.921875 27.277344 C 19.917969 27.273438 19.910156 27.273438 19.90625 27.269531 C 19.890625 27.257812 19.875 27.246094 19.859375 27.238281 C 19.851562 27.230469 19.847656 27.226562 19.84375 27.222656 C 19.824219 27.210938 19.804688 27.195312 19.789062 27.179688 C 19.789062 27.175781 19.785156 27.175781 19.785156 27.175781 C 19.769531 27.15625 19.753906 27.136719 19.738281 27.117188 C 19.734375 27.113281 19.730469 27.109375 19.726562 27.101562 C 19.710938 27.085938 19.703125 27.070312 19.691406 27.050781 C 19.6875 27.046875 19.6875 27.046875 19.683594 27.042969 Z M 18.15625 24.394531 " fill-opacity="1" fill-rule="nonzero"/></g></svg>