<svg xmlns="http://www.w3.org/2000/svg" xmlns:xlink="http://www.w3.org/1999/xlink" width="92" zoomAndPan="magnify" viewBox="0 0 69.119995 59.039997" height="68" preserveAspectRatio="xMidYMid meet" version="1.0"><defs><clipPath id="59c7a5552b"><path d="M 38 24 L 64 24 L 64 43.585938 L 38 43.585938 Z M 38 24 " clip-rule="nonzero"/></clipPath><clipPath id="4a76e15214"><path d="M 35 32 L 56 32 L 56 43.585938 L 35 43.585938 Z M 35 32 " clip-rule="nonzero"/></clipPath><clipPath id="1a542cba70"><path d="M 37 6.683594 L 49 6.683594 L 49 18 L 37 18 Z M 37 6.683594 " clip-rule="nonzero"/></clipPath><clipPath id="957f4fc9a4"><path d="M 40 40 L 42 40 L 42 43.585938 L 40 43.585938 Z M 40 40 " clip-rule="nonzero"/></clipPath><clipPath id="c9221e5700"><path d="M 4.320312 24 L 30 24 L 30 43.585938 L 4.320312 43.585938 Z M 4.320312 24 " clip-rule="nonzero"/></clipPath><clipPath id="451a372891"><path d="M 12 32 L 33 32 L 33 43.585938 L 12 43.585938 Z M 12 32 " clip-rule="nonzero"/></clipPath><clipPath id="06c96558fd"><path d="M 20 6.683594 L 32 6.683594 L 32 18 L 20 18 Z M 20 6.683594 " clip-rule="nonzero"/></clipPath><clipPath id="9208b0f1e2"><path d="M 26 40 L 28 40 L 28 43.585938 L 26 43.585938 Z M 26 40 " clip-rule="nonzero"/></clipPath></defs><g clip-path="url(#59c7a5552b)"><path fill="#ea3969" d="M 59.253906 28.515625 C 58.105469 27.214844 57.144531 26.210938 57.070312 26.132812 C 56.121094 25.101562 54.835938 24.441406 53.445312 24.277344 C 52.050781 24.113281 50.644531 24.453125 49.480469 25.234375 C 48.417969 25.953125 47.636719 26.96875 47.21875 28.175781 C 47.015625 28.753906 46.90625 29.359375 46.894531 29.972656 C 46.882812 30.457031 46.933594 30.941406 47.042969 31.410156 L 43.695312 34.277344 L 39.289062 33.734375 C 38.953125 33.695312 38.644531 33.933594 38.601562 34.273438 C 38.558594 34.613281 38.800781 34.917969 39.140625 34.960938 L 43.8125 35.535156 C 43.839844 35.539062 43.863281 35.539062 43.886719 35.539062 C 44.035156 35.539062 44.175781 35.488281 44.289062 35.390625 L 48.132812 32.101562 C 48.132812 32.101562 48.136719 32.097656 48.140625 32.097656 L 49.40625 31.011719 C 49.664062 30.789062 49.695312 30.398438 49.472656 30.140625 C 49.253906 29.882812 48.863281 29.851562 48.605469 30.074219 L 48.140625 30.46875 C 48.003906 28.824219 48.753906 27.214844 50.171875 26.261719 C 52.082031 24.972656 54.605469 25.269531 56.164062 26.972656 C 56.167969 26.972656 56.167969 26.976562 56.171875 26.980469 C 56.183594 26.992188 57.15625 28.007812 58.332031 29.335938 C 61.0625 32.414062 62.566406 36.382812 62.566406 40.5 L 62.566406 42.875 C 62.566406 43.214844 62.84375 43.492188 63.183594 43.492188 C 63.527344 43.492188 63.800781 43.214844 63.800781 42.875 L 63.800781 40.5 C 63.800781 36.078125 62.1875 31.824219 59.253906 28.515625 Z M 59.253906 28.515625 " fill-opacity="1" fill-rule="nonzero"/></g><g clip-path="url(#4a76e15214)"><path fill="#ea3969" d="M 54.988281 32.394531 L 46.632812 38.359375 C 45.558594 39.0625 44.273438 39.308594 43.011719 39.054688 L 36.253906 37.71875 C 35.921875 37.652344 35.59375 37.867188 35.53125 38.203125 C 35.464844 38.539062 35.679688 38.863281 36.015625 38.929688 L 42.769531 40.265625 C 43.167969 40.347656 43.570312 40.386719 43.976562 40.386719 C 44.363281 40.386719 44.75 40.351562 45.132812 40.277344 C 45.917969 40.125 46.652344 39.824219 47.324219 39.386719 C 47.328125 39.382812 47.335938 39.378906 47.34375 39.371094 L 50.519531 37.105469 C 50.984375 38.128906 51.269531 39.21875 51.367188 40.34375 L 51.597656 42.929688 C 51.628906 43.25 51.898438 43.492188 52.214844 43.492188 C 52.230469 43.492188 52.25 43.492188 52.269531 43.488281 C 52.609375 43.457031 52.859375 43.160156 52.828125 42.820312 L 52.597656 40.234375 C 52.480469 38.886719 52.125 37.589844 51.542969 36.375 L 55.707031 33.402344 C 55.984375 33.203125 56.046875 32.816406 55.851562 32.539062 C 55.652344 32.261719 55.265625 32.199219 54.988281 32.394531 Z M 54.988281 32.394531 " fill-opacity="1" fill-rule="nonzero"/></g><path fill="#ea3969" d="M 45.472656 13.785156 C 44.777344 14.078125 44.15625 14.5 43.621094 15.035156 C 43.085938 15.570312 42.664062 16.191406 42.371094 16.886719 C 42.066406 17.605469 41.914062 18.367188 41.914062 19.152344 C 41.914062 19.941406 42.066406 20.703125 42.371094 21.421875 C 42.664062 22.117188 43.085938 22.738281 43.621094 23.273438 C 44.15625 23.808594 44.777344 24.230469 45.472656 24.523438 C 46.191406 24.824219 46.953125 24.980469 47.738281 24.980469 C 48.527344 24.980469 49.289062 24.824219 50.007812 24.523438 C 50.703125 24.230469 51.324219 23.808594 51.859375 23.273438 C 52.394531 22.738281 52.8125 22.117188 53.109375 21.421875 C 53.410156 20.703125 53.566406 19.941406 53.566406 19.152344 C 53.566406 18.367188 53.410156 17.605469 53.109375 16.886719 C 52.8125 16.191406 52.394531 15.570312 51.859375 15.035156 C 51.324219 14.5 50.703125 14.078125 50.007812 13.785156 C 49.289062 13.480469 48.527344 13.328125 47.738281 13.328125 C 46.953125 13.328125 46.191406 13.480469 45.472656 13.785156 Z M 52.332031 19.152344 C 52.332031 21.6875 50.269531 23.746094 47.738281 23.746094 C 45.207031 23.746094 43.148438 21.6875 43.148438 19.152344 C 43.148438 16.621094 45.207031 14.5625 47.738281 14.5625 C 50.269531 14.5625 52.332031 16.621094 52.332031 19.152344 Z M 52.332031 19.152344 " fill-opacity="1" fill-rule="nonzero"/><g clip-path="url(#1a542cba70)"><path fill="#ea3969" d="M 40.09375 17.101562 C 40.183594 17.144531 40.277344 17.167969 40.371094 17.167969 C 40.597656 17.167969 40.816406 17.042969 40.921875 16.824219 C 41.074219 16.519531 40.953125 16.148438 40.648438 15.996094 C 39.378906 15.359375 38.507812 14.140625 38.324219 12.734375 C 38.019531 10.40625 39.667969 8.261719 42 7.957031 C 43.128906 7.808594 44.246094 8.109375 45.148438 8.804688 C 46.050781 9.496094 46.628906 10.5 46.777344 11.628906 C 46.824219 11.96875 47.132812 12.207031 47.46875 12.164062 C 47.808594 12.117188 48.046875 11.808594 48.003906 11.46875 C 47.8125 10.015625 47.066406 8.71875 45.902344 7.824219 C 44.738281 6.929688 43.296875 6.542969 41.839844 6.730469 C 40.382812 6.921875 39.089844 7.667969 38.191406 8.832031 C 37.296875 9.996094 36.910156 11.4375 37.101562 12.894531 C 37.335938 14.707031 38.457031 16.28125 40.09375 17.101562 Z M 40.09375 17.101562 " fill-opacity="1" fill-rule="nonzero"/></g><path fill="#ea3969" d="M 36.683594 36.308594 C 36.6875 36.300781 36.695312 36.292969 36.699219 36.285156 L 39.863281 30.835938 C 39.894531 30.785156 39.917969 30.730469 39.929688 30.671875 L 40.914062 26.636719 C 40.992188 26.304688 40.789062 25.972656 40.457031 25.890625 C 40.128906 25.808594 39.792969 26.011719 39.710938 26.34375 L 38.75 30.292969 L 35.636719 35.652344 C 35.386719 36.035156 34.96875 36.25 34.535156 36.25 C 34.363281 36.25 34.191406 36.21875 34.027344 36.148438 C 33.675781 36.003906 33.414062 35.726562 33.289062 35.371094 C 33.164062 35.011719 33.195312 34.632812 33.378906 34.300781 C 33.378906 34.292969 33.382812 34.289062 33.386719 34.28125 L 35.953125 29.207031 C 35.980469 29.15625 36 29.097656 36.007812 29.039062 L 37.019531 23.570312 C 37.023438 23.558594 37.023438 23.546875 37.027344 23.53125 C 37.273438 21.664062 38.523438 20.085938 40.292969 19.414062 C 40.609375 19.292969 40.773438 18.9375 40.652344 18.617188 C 40.53125 18.300781 40.171875 18.140625 39.855469 18.257812 C 38.785156 18.664062 37.84375 19.351562 37.128906 20.25 C 36.414062 21.152344 35.953125 22.226562 35.804688 23.363281 L 34.8125 28.730469 L 32.289062 33.71875 C 31.945312 34.347656 31.886719 35.101562 32.125 35.777344 C 32.363281 36.460938 32.886719 37.011719 33.550781 37.289062 C 33.871094 37.421875 34.207031 37.488281 34.535156 37.488281 C 35.382812 37.488281 36.203125 37.0625 36.683594 36.308594 Z M 36.683594 36.308594 " fill-opacity="1" fill-rule="nonzero"/><path fill="#ea3969" d="M 40.488281 31.21875 L 40.488281 32.46875 C 40.488281 32.808594 40.765625 33.085938 41.105469 33.085938 C 41.449219 33.085938 41.722656 32.808594 41.722656 32.46875 L 41.722656 31.21875 C 41.722656 30.878906 41.449219 30.601562 41.105469 30.601562 C 40.765625 30.601562 40.488281 30.878906 40.488281 31.21875 Z M 40.488281 31.21875 " fill-opacity="1" fill-rule="nonzero"/><g clip-path="url(#957f4fc9a4)"><path fill="#ea3969" d="M 41.105469 40.765625 C 40.765625 40.765625 40.488281 41.039062 40.488281 41.382812 L 40.488281 42.875 C 40.488281 43.214844 40.765625 43.492188 41.105469 43.492188 C 41.449219 43.492188 41.722656 43.214844 41.722656 42.875 L 41.722656 41.382812 C 41.722656 41.039062 41.449219 40.765625 41.105469 40.765625 Z M 41.105469 40.765625 " fill-opacity="1" fill-rule="nonzero"/></g><g clip-path="url(#c9221e5700)"><path fill="#ea3969" d="M 17.957031 26.261719 C 19.375 27.214844 20.125 28.824219 19.988281 30.46875 L 19.523438 30.074219 C 19.265625 29.851562 18.875 29.882812 18.652344 30.140625 C 18.429688 30.402344 18.460938 30.789062 18.722656 31.011719 L 19.988281 32.097656 C 19.992188 32.097656 19.992188 32.101562 19.996094 32.101562 L 23.835938 35.390625 C 23.949219 35.488281 24.09375 35.539062 24.238281 35.539062 C 24.261719 35.539062 24.289062 35.539062 24.3125 35.535156 L 29.109375 34.945312 C 29.449219 34.90625 29.691406 34.597656 29.648438 34.257812 C 29.605469 33.917969 29.300781 33.679688 28.960938 33.71875 L 24.433594 34.277344 L 21.085938 31.410156 C 21.195312 30.941406 21.242188 30.460938 21.234375 29.972656 C 21.21875 29.359375 21.109375 28.753906 20.910156 28.175781 C 20.492188 26.96875 19.707031 25.953125 18.648438 25.238281 C 17.484375 24.453125 16.074219 24.113281 14.683594 24.277344 C 13.292969 24.441406 12.003906 25.101562 11.058594 26.132812 C 10.980469 26.210938 10.023438 27.214844 8.871094 28.515625 C 5.941406 31.824219 4.324219 36.078125 4.324219 40.5 L 4.324219 42.875 C 4.324219 43.214844 4.601562 43.492188 4.941406 43.492188 C 5.285156 43.492188 5.558594 43.214844 5.558594 42.875 L 5.558594 40.5 C 5.558594 36.382812 7.0625 32.414062 9.796875 29.335938 C 10.972656 28.007812 11.945312 26.992188 11.953125 26.980469 C 11.957031 26.976562 11.960938 26.976562 11.964844 26.972656 C 13.523438 25.269531 16.042969 24.972656 17.957031 26.261719 Z M 17.957031 26.261719 " fill-opacity="1" fill-rule="nonzero"/></g><g clip-path="url(#451a372891)"><path fill="#ea3969" d="M 32.230469 37.648438 L 25.117188 39.054688 C 25.117188 39.054688 25.113281 39.054688 25.113281 39.054688 C 23.855469 39.308594 22.570312 39.0625 21.492188 38.359375 L 13.136719 32.394531 C 12.859375 32.199219 12.476562 32.261719 12.277344 32.539062 C 12.078125 32.816406 12.144531 33.203125 12.421875 33.402344 L 16.585938 36.375 C 16.003906 37.589844 15.648438 38.886719 15.527344 40.238281 L 15.296875 42.820312 C 15.265625 43.160156 15.519531 43.457031 15.859375 43.488281 C 15.875 43.492188 15.894531 43.492188 15.914062 43.492188 C 16.230469 43.492188 16.5 43.25 16.527344 42.929688 L 16.757812 40.347656 C 16.859375 39.21875 17.144531 38.128906 17.609375 37.105469 L 20.785156 39.371094 C 20.792969 39.378906 20.796875 39.382812 20.804688 39.386719 C 21.472656 39.824219 22.210938 40.125 22.996094 40.277344 C 23.378906 40.351562 23.765625 40.386719 24.152344 40.386719 C 24.554688 40.386719 24.957031 40.347656 25.359375 40.265625 L 32.472656 38.859375 C 32.804688 38.792969 33.023438 38.46875 32.957031 38.132812 C 32.890625 37.796875 32.566406 37.582031 32.230469 37.648438 Z M 32.230469 37.648438 " fill-opacity="1" fill-rule="nonzero"/></g><path fill="#ea3969" d="M 16.269531 23.273438 C 16.804688 23.808594 17.425781 24.230469 18.121094 24.523438 C 18.839844 24.828125 19.601562 24.980469 20.386719 24.980469 C 21.175781 24.980469 21.9375 24.828125 22.65625 24.523438 C 23.347656 24.230469 23.972656 23.808594 24.507812 23.273438 C 25.042969 22.738281 25.460938 22.117188 25.753906 21.421875 C 26.058594 20.703125 26.214844 19.941406 26.214844 19.152344 C 26.214844 18.367188 26.058594 17.605469 25.753906 16.886719 C 25.460938 16.191406 25.042969 15.570312 24.507812 15.035156 C 23.972656 14.5 23.347656 14.078125 22.65625 13.785156 C 21.9375 13.480469 21.171875 13.328125 20.386719 13.328125 C 19.601562 13.328125 18.839844 13.480469 18.121094 13.785156 C 17.425781 14.078125 16.800781 14.5 16.269531 15.035156 C 15.734375 15.570312 15.3125 16.191406 15.019531 16.886719 C 14.714844 17.605469 14.5625 18.367188 14.5625 19.152344 C 14.5625 19.941406 14.714844 20.703125 15.019531 21.421875 C 15.3125 22.117188 15.734375 22.738281 16.269531 23.273438 Z M 20.386719 14.5625 C 22.917969 14.5625 24.980469 16.621094 24.980469 19.152344 C 24.980469 21.6875 22.917969 23.746094 20.386719 23.746094 C 17.855469 23.746094 15.796875 21.6875 15.796875 19.152344 C 15.796875 16.621094 17.855469 14.5625 20.386719 14.5625 Z M 20.386719 14.5625 " fill-opacity="1" fill-rule="nonzero"/><g clip-path="url(#06c96558fd)"><path fill="#ea3969" d="M 20.65625 12.164062 C 20.996094 12.207031 21.304688 11.96875 21.347656 11.628906 C 21.496094 10.5 22.074219 9.496094 22.976562 8.804688 C 23.878906 8.109375 25 7.808594 26.128906 7.957031 C 27.257812 8.105469 28.261719 8.683594 28.953125 9.585938 C 29.648438 10.488281 29.949219 11.605469 29.800781 12.734375 C 29.617188 14.140625 28.75 15.359375 27.480469 15.996094 C 27.175781 16.148438 27.050781 16.519531 27.203125 16.824219 C 27.3125 17.042969 27.53125 17.167969 27.757812 17.167969 C 27.851562 17.167969 27.945312 17.144531 28.035156 17.101562 C 29.671875 16.28125 30.789062 14.707031 31.027344 12.894531 C 31.21875 11.4375 30.828125 9.996094 29.933594 8.832031 C 29.039062 7.667969 27.742188 6.921875 26.289062 6.730469 C 24.832031 6.542969 23.386719 6.929688 22.222656 7.824219 C 21.058594 8.71875 20.3125 10.015625 20.125 11.46875 C 20.082031 11.808594 20.320312 12.117188 20.65625 12.164062 Z M 20.65625 12.164062 " fill-opacity="1" fill-rule="nonzero"/></g><path fill="#ea3969" d="M 30.996094 20.25 C 30.28125 19.351562 29.339844 18.664062 28.273438 18.257812 C 27.953125 18.136719 27.597656 18.300781 27.476562 18.617188 C 27.355469 18.9375 27.515625 19.292969 27.835938 19.414062 C 29.601562 20.085938 30.855469 21.664062 31.101562 23.535156 C 31.101562 23.546875 31.105469 23.558594 31.105469 23.570312 L 32.117188 29.039062 C 32.128906 29.097656 32.148438 29.15625 32.175781 29.207031 L 32.4375 29.726562 C 32.546875 29.941406 32.761719 30.066406 32.988281 30.066406 C 33.082031 30.066406 33.175781 30.046875 33.265625 30 C 33.570312 29.847656 33.691406 29.472656 33.539062 29.171875 L 33.316406 28.730469 L 32.324219 23.363281 C 32.171875 22.226562 31.714844 21.152344 30.996094 20.25 Z M 30.996094 20.25 " fill-opacity="1" fill-rule="nonzero"/><path fill="#ea3969" d="M 28.261719 30.835938 L 30.316406 34.375 C 30.433594 34.570312 30.640625 34.683594 30.851562 34.683594 C 30.957031 34.683594 31.066406 34.65625 31.164062 34.597656 C 31.457031 34.425781 31.558594 34.050781 31.386719 33.753906 L 29.375 30.292969 L 28.414062 26.34375 C 28.335938 26.011719 28 25.808594 27.667969 25.890625 C 27.335938 25.972656 27.132812 26.304688 27.214844 26.636719 L 28.199219 30.671875 C 28.210938 30.730469 28.234375 30.785156 28.261719 30.835938 Z M 28.261719 30.835938 " fill-opacity="1" fill-rule="nonzero"/><path fill="#ea3969" d="M 26.402344 31.21875 L 26.402344 32.46875 C 26.402344 32.808594 26.679688 33.085938 27.019531 33.085938 C 27.363281 33.085938 27.636719 32.808594 27.636719 32.46875 L 27.636719 31.21875 C 27.636719 30.878906 27.363281 30.601562 27.019531 30.601562 C 26.679688 30.601562 26.402344 30.878906 26.402344 31.21875 Z M 26.402344 31.21875 " fill-opacity="1" fill-rule="nonzero"/><g clip-path="url(#9208b0f1e2)"><path fill="#ea3969" d="M 27.019531 40.765625 C 26.679688 40.765625 26.402344 41.039062 26.402344 41.382812 L 26.402344 42.875 C 26.402344 43.214844 26.679688 43.492188 27.019531 43.492188 C 27.363281 43.492188 27.636719 43.214844 27.636719 42.875 L 27.636719 41.382812 C 27.636719 41.039062 27.363281 40.765625 27.019531 40.765625 Z M 27.019531 40.765625 " fill-opacity="1" fill-rule="nonzero"/></g></svg>