<svg xmlns="http://www.w3.org/2000/svg" xmlns:xlink="http://www.w3.org/1999/xlink" width="92" zoomAndPan="magnify" viewBox="0 0 69.119995 59.039997" height="68" preserveAspectRatio="xMidYMid meet" version="1.0"><defs><clipPath id="f5e09935af"><path d="M 7.203125 2.507812 L 58.863281 2.507812 L 58.863281 47.527344 L 7.203125 47.527344 Z M 7.203125 2.507812 " clip-rule="nonzero"/></clipPath></defs><g clip-path="url(#f5e09935af)"><path fill="#ea3969" d="M 58.148438 20.085938 L 55.089844 20.085938 C 54.796875 20.085938 54.558594 19.90625 54.484375 19.621094 C 54.078125 18.070312 53.464844 16.582031 52.652344 15.195312 C 52.503906 14.945312 52.542969 14.648438 52.75 14.4375 L 54.917969 12.273438 C 55.070312 12.121094 55.15625 11.914062 55.15625 11.695312 C 55.15625 11.480469 55.070312 11.269531 54.917969 11.117188 L 50.367188 6.570312 C 50.046875 6.25 49.527344 6.25 49.210938 6.570312 L 47.046875 8.734375 C 46.839844 8.941406 46.539062 8.980469 46.285156 8.832031 C 44.898438 8.019531 43.410156 7.402344 41.863281 7 C 41.582031 6.925781 41.398438 6.6875 41.398438 6.394531 L 41.398438 3.332031 C 41.398438 2.882812 41.03125 2.515625 40.578125 2.515625 L 34.144531 2.515625 C 33.695312 2.515625 33.328125 2.882812 33.328125 3.332031 L 33.328125 6.394531 C 33.328125 6.6875 33.144531 6.925781 32.863281 7 C 31.320312 7.402344 29.832031 8.019531 28.4375 8.832031 C 28.183594 8.980469 27.886719 8.941406 27.679688 8.734375 L 25.519531 6.570312 C 25.363281 6.417969 25.15625 6.332031 24.9375 6.332031 C 24.722656 6.332031 24.515625 6.417969 24.359375 6.570312 L 19.8125 11.117188 C 19.65625 11.269531 19.570312 11.480469 19.570312 11.695312 C 19.570312 11.914062 19.65625 12.121094 19.8125 12.273438 L 20.933594 13.398438 C 17.390625 14.1875 14.738281 17.355469 14.738281 21.132812 C 14.738281 25.503906 18.292969 29.058594 22.664062 29.058594 C 27.035156 29.058594 30.589844 25.503906 30.589844 21.132812 C 30.589844 16.894531 27.25 13.425781 23.066406 13.214844 L 21.546875 11.695312 L 24.9375 8.304688 L 26.523438 9.894531 C 27.265625 10.628906 28.363281 10.769531 29.261719 10.246094 C 30.527344 9.507812 31.878906 8.949219 33.277344 8.582031 C 34.285156 8.316406 34.964844 7.4375 34.964844 6.394531 L 34.964844 4.152344 L 39.761719 4.152344 L 39.761719 6.394531 C 39.761719 7.4375 40.441406 8.316406 41.449219 8.582031 C 42.851562 8.949219 44.199219 9.507812 45.460938 10.242188 C 46.363281 10.773438 47.464844 10.628906 48.203125 9.890625 L 49.789062 8.304688 L 53.179688 11.695312 L 51.597656 13.28125 C 50.855469 14.019531 50.710938 15.121094 51.242188 16.023438 C 51.976562 17.28125 52.535156 18.628906 52.902344 20.035156 C 53.164062 21.046875 54.042969 21.722656 55.089844 21.722656 L 57.332031 21.722656 L 57.332031 26.519531 L 55.089844 26.519531 C 54.042969 26.519531 53.164062 27.199219 52.902344 28.207031 C 52.535156 29.613281 51.976562 30.964844 51.242188 32.21875 C 50.710938 33.125 50.855469 34.226562 51.59375 34.960938 L 53.179688 36.546875 L 49.789062 39.9375 L 48.203125 38.351562 C 47.460938 37.613281 46.363281 37.472656 45.464844 38 C 44.199219 38.738281 42.847656 39.296875 41.449219 39.660156 C 40.441406 39.925781 39.761719 40.804688 39.761719 41.847656 L 39.761719 44.09375 L 38.121094 44.09375 L 38.121094 43.183594 C 38.121094 35.765625 32.085938 29.730469 24.667969 29.730469 L 20.65625 29.730469 C 13.238281 29.730469 7.203125 35.765625 7.203125 43.183594 L 7.203125 46.851562 C 7.203125 47.304688 7.570312 47.667969 8.023438 47.667969 L 37.300781 47.667969 C 37.753906 47.667969 38.121094 47.304688 38.121094 46.851562 L 38.121094 45.726562 L 40.578125 45.726562 C 41.03125 45.726562 41.398438 45.363281 41.398438 44.910156 L 41.398438 41.847656 C 41.398438 41.554688 41.582031 41.320312 41.863281 41.246094 C 43.40625 40.84375 44.894531 40.226562 46.292969 39.410156 C 46.542969 39.265625 46.839844 39.300781 47.046875 39.507812 L 49.210938 41.671875 C 49.527344 41.992188 50.046875 41.992188 50.367188 41.671875 L 54.917969 37.125 C 55.070312 36.972656 55.15625 36.765625 55.15625 36.546875 C 55.15625 36.332031 55.070312 36.121094 54.917969 35.96875 L 52.75 33.804688 C 52.542969 33.597656 52.503906 33.300781 52.652344 33.046875 C 53.464844 31.660156 54.078125 30.171875 54.484375 28.621094 C 54.558594 28.339844 54.796875 28.15625 55.089844 28.15625 L 58.152344 28.15625 C 58.601562 28.15625 58.96875 27.789062 58.96875 27.339844 L 58.96875 20.90625 C 58.96875 20.453125 58.601562 20.085938 58.148438 20.085938 Z M 28.953125 21.132812 C 28.953125 24.601562 26.132812 27.421875 22.664062 27.421875 C 19.195312 27.421875 16.375 24.601562 16.375 21.132812 C 16.375 17.664062 19.195312 14.839844 22.664062 14.839844 C 26.132812 14.839844 28.953125 17.664062 28.953125 21.132812 Z M 36.484375 46.03125 L 32.296875 46.03125 L 32.296875 40.257812 C 32.296875 39.808594 31.929688 39.441406 31.480469 39.441406 C 31.027344 39.441406 30.660156 39.808594 30.660156 40.257812 L 30.660156 46.03125 L 14.664062 46.03125 L 14.664062 40.257812 C 14.664062 39.808594 14.296875 39.441406 13.847656 39.441406 C 13.394531 39.441406 13.027344 39.808594 13.027344 40.257812 L 13.027344 46.03125 L 8.839844 46.03125 L 8.839844 43.183594 C 8.839844 36.667969 14.140625 31.367188 20.65625 31.367188 L 24.667969 31.367188 C 31.183594 31.367188 36.484375 36.667969 36.484375 43.183594 Z M 37.355469 35.816406 C 37.007812 35.222656 36.621094 34.652344 36.195312 34.113281 C 36.578125 34.15625 36.964844 34.179688 37.363281 34.179688 C 40.140625 34.179688 42.65625 33.054688 44.476562 31.234375 C 46.292969 29.414062 47.421875 26.898438 47.421875 24.125 C 47.421875 21.34375 46.292969 18.832031 44.476562 17.011719 C 42.65625 15.191406 40.140625 14.0625 37.363281 14.0625 C 35.769531 14.0625 34.265625 14.433594 32.9375 15.085938 C 32.097656 15.496094 31.324219 16.019531 30.640625 16.636719 C 30.367188 16.160156 30.058594 15.707031 29.707031 15.285156 C 30.464844 14.628906 31.308594 14.066406 32.21875 13.621094 C 33.773438 12.855469 35.519531 12.425781 37.363281 12.425781 C 40.59375 12.425781 43.519531 13.734375 45.632812 15.851562 C 47.75 17.96875 49.058594 20.890625 49.058594 24.125 C 49.058594 27.351562 47.75 30.273438 45.632812 32.394531 C 43.519531 34.507812 40.59375 35.816406 37.363281 35.816406 Z M 31.074219 29.167969 L 31.074219 24.121094 L 32.710938 24.121094 L 32.710938 29.167969 Z M 36.359375 21.136719 L 36.359375 29.167969 L 34.722656 29.167969 L 34.722656 21.136719 Z M 40.003906 21.875 L 40.003906 29.167969 L 38.367188 29.167969 L 38.367188 21.875 Z M 43.648438 19.078125 L 43.648438 29.167969 L 42.011719 29.167969 L 42.011719 19.078125 Z M 43.648438 19.078125 " fill-opacity="1" fill-rule="nonzero"/></g></svg>