<svg xmlns="http://www.w3.org/2000/svg" xmlns:xlink="http://www.w3.org/1999/xlink" width="40" zoomAndPan="magnify" viewBox="0 0 30 37.92" height="40" preserveAspectRatio="xMidYMid meet" version="1.0"><defs><clipPath id="35dcc611b4"><path d="M 1.753906 1.722656 L 27.949219 1.722656 L 27.949219 27.917969 L 1.753906 27.917969 Z M 1.753906 1.722656 " clip-rule="nonzero"/></clipPath></defs><g clip-path="url(#35dcc611b4)"><path fill="#ea3969" d="M 7.671875 3.757812 C 7.671875 3.574219 7.820312 3.425781 8.003906 3.425781 L 8.789062 3.425781 C 8.96875 3.425781 9.117188 3.574219 9.117188 3.757812 C 9.117188 3.9375 8.96875 4.085938 8.789062 4.085938 L 8.003906 4.085938 C 7.820312 4.085938 7.671875 3.9375 7.671875 3.757812 Z M 10.0625 4.085938 L 10.847656 4.085938 C 11.03125 4.085938 11.179688 3.9375 11.179688 3.757812 C 11.179688 3.574219 11.03125 3.425781 10.847656 3.425781 L 10.0625 3.425781 C 9.882812 3.425781 9.734375 3.574219 9.734375 3.757812 C 9.734375 3.9375 9.882812 4.085938 10.0625 4.085938 Z M 18.859375 4.085938 L 22.535156 4.085938 C 22.714844 4.085938 22.863281 3.9375 22.863281 3.757812 C 22.863281 3.574219 22.714844 3.425781 22.535156 3.425781 L 18.859375 3.425781 C 18.679688 3.425781 18.53125 3.574219 18.53125 3.757812 C 18.53125 3.9375 18.679688 4.085938 18.859375 4.085938 Z M 27.761719 27.625 L 26.953125 28.085938 C 26.808594 28.167969 26.648438 28.207031 26.488281 28.207031 C 26.402344 28.207031 26.316406 28.195312 26.234375 28.171875 C 25.988281 28.105469 25.785156 27.945312 25.664062 27.726562 L 24.332031 25.363281 C 24.164062 25.066406 24.175781 24.714844 24.332031 24.4375 L 23.597656 23.167969 C 23.042969 23.363281 22.464844 23.464844 21.882812 23.464844 C 21.4375 23.464844 20.984375 23.40625 20.542969 23.285156 C 18.308594 22.6875 16.808594 20.703125 16.726562 18.503906 L 14.449219 18.503906 C 14.386719 19.585938 13.8125 20.410156 13.253906 21.210938 C 12.914062 21.695312 12.597656 22.152344 12.382812 22.664062 C 11.773438 24.128906 12.320312 25.355469 12.84375 26.542969 C 13.03125 26.96875 13.210938 27.367188 13.339844 27.78125 C 13.371094 27.878906 13.351562 27.988281 13.289062 28.074219 C 13.226562 28.160156 13.128906 28.207031 13.023438 28.207031 L 6.515625 28.207031 C 6.347656 28.207031 6.207031 28.082031 6.1875 27.917969 L 5.921875 25.648438 C 5.894531 25.386719 5.679688 25.195312 5.414062 25.195312 L 4.21875 25.195312 C 3.855469 25.195312 3.507812 25.039062 3.273438 24.765625 C 3.035156 24.492188 2.929688 24.128906 2.980469 23.765625 C 2.988281 23.714844 3 23.660156 3.007812 23.601562 C 3.03125 23.492188 3.074219 23.265625 3.039062 23.207031 C 2.863281 23 2.78125 22.757812 2.804688 22.484375 C 2.675781 22.351562 2.503906 22.128906 2.617188 21.828125 C 2.628906 21.796875 2.644531 21.757812 2.664062 21.714844 C 2.675781 21.679688 2.699219 21.628906 2.71875 21.578125 L 2.261719 21.453125 C 2.046875 21.394531 1.871094 21.234375 1.796875 21.027344 C 1.71875 20.820312 1.746094 20.585938 1.871094 20.402344 L 2.820312 18.996094 C 2.972656 18.765625 3 18.605469 3 18.304688 C 3 16.320312 4 14.507812 5.683594 13.453125 L 5.683594 3.246094 C 5.683594 2.40625 6.367188 1.722656 7.207031 1.722656 L 23.328125 1.722656 C 24.167969 1.722656 24.851562 2.40625 24.851562 3.246094 L 24.851562 14.109375 C 26.558594 15.320312 27.421875 17.507812 26.851562 19.644531 C 26.574219 20.667969 26.007812 21.558594 25.214844 22.230469 L 25.941406 23.492188 C 26.035156 23.488281 26.125 23.5 26.21875 23.523438 C 26.460938 23.59375 26.664062 23.75 26.789062 23.972656 L 28.117188 26.335938 C 28.375 26.789062 28.214844 27.367188 27.761719 27.625 Z M 24.195312 13.710938 L 24.195312 5.792969 L 6.34375 5.792969 L 6.34375 16.980469 C 6.34375 17.457031 6.730469 17.84375 7.207031 17.84375 L 16.746094 17.84375 C 16.769531 17.554688 16.820312 17.265625 16.898438 16.976562 C 17.632812 14.234375 20.464844 12.601562 23.207031 13.335938 C 23.554688 13.429688 23.886719 13.554688 24.195312 13.710938 Z M 6.34375 3.246094 L 6.34375 5.132812 L 24.195312 5.132812 L 24.195312 3.246094 C 24.195312 2.769531 23.804688 2.378906 23.328125 2.378906 L 7.207031 2.378906 C 6.730469 2.378906 6.34375 2.769531 6.34375 3.246094 Z M 13.789062 18.503906 L 7.207031 18.503906 C 6.367188 18.503906 5.683594 17.820312 5.683594 16.980469 L 5.683594 14.253906 C 4.40625 15.207031 3.660156 16.691406 3.660156 18.304688 C 3.660156 18.703125 3.613281 19.003906 3.367188 19.363281 L 2.417969 20.769531 C 2.417969 20.773438 2.410156 20.785156 2.414062 20.796875 C 2.421875 20.8125 2.433594 20.816406 2.4375 20.816406 L 3.027344 20.980469 C 3.175781 21.019531 3.292969 21.113281 3.351562 21.242188 C 3.476562 21.496094 3.351562 21.785156 3.269531 21.976562 C 3.265625 21.984375 3.261719 21.996094 3.257812 22.003906 C 3.277344 22.027344 3.304688 22.054688 3.324219 22.070312 C 3.347656 22.09375 3.371094 22.117188 3.394531 22.140625 C 3.472656 22.222656 3.503906 22.335938 3.476562 22.445312 C 3.433594 22.625 3.480469 22.710938 3.539062 22.777344 C 3.785156 23.058594 3.710938 23.441406 3.65625 23.722656 C 3.648438 23.773438 3.640625 23.820312 3.632812 23.859375 C 3.609375 24.035156 3.65625 24.203125 3.769531 24.332031 C 3.882812 24.464844 4.042969 24.535156 4.21875 24.535156 L 5.414062 24.535156 C 6.007812 24.535156 6.507812 24.980469 6.578125 25.570312 L 6.808594 27.546875 L 12.554688 27.546875 C 12.460938 27.308594 12.355469 27.0625 12.242188 26.808594 C 11.6875 25.558594 11.058594 24.136719 11.773438 22.410156 C 12.015625 21.832031 12.371094 21.324219 12.710938 20.832031 C 13.230469 20.089844 13.722656 19.382812 13.789062 18.503906 Z M 24.121094 22.203125 C 25.160156 21.601562 25.902344 20.632812 26.214844 19.472656 C 26.855469 17.082031 25.429688 14.613281 23.039062 13.972656 C 22.648438 13.871094 22.261719 13.820312 21.875 13.820312 C 19.894531 13.820312 18.074219 15.144531 17.539062 17.148438 C 16.898438 19.542969 18.320312 22.011719 20.714844 22.652344 C 21.871094 22.960938 23.082031 22.800781 24.121094 22.203125 Z M 24.207031 22.902344 L 24.835938 23.992188 L 25.3125 23.71875 L 24.683594 22.628906 C 24.609375 22.679688 24.53125 22.726562 24.449219 22.773438 C 24.371094 22.820312 24.289062 22.863281 24.207031 22.902344 Z M 27.542969 26.660156 L 26.214844 24.292969 C 26.175781 24.226562 26.113281 24.179688 26.042969 24.160156 C 26.015625 24.152344 25.988281 24.148438 25.964844 24.148438 C 25.914062 24.148438 25.867188 24.164062 25.824219 24.1875 L 25.015625 24.644531 C 24.878906 24.722656 24.828125 24.902344 24.90625 25.039062 L 26.238281 27.40625 C 26.273438 27.46875 26.335938 27.519531 26.410156 27.539062 C 26.484375 27.558594 26.558594 27.550781 26.625 27.511719 L 27.433594 27.054688 C 27.570312 26.976562 27.621094 26.796875 27.542969 26.660156 Z M 21.875 22.324219 C 21.53125 22.324219 21.183594 22.28125 20.835938 22.1875 C 19.800781 21.910156 18.9375 21.246094 18.398438 20.316406 C 17.863281 19.390625 17.722656 18.308594 18 17.273438 C 18.570312 15.136719 20.777344 13.863281 22.914062 14.4375 C 23.949219 14.714844 24.8125 15.378906 25.351562 16.304688 C 25.886719 17.234375 26.027344 18.316406 25.75 19.351562 C 25.269531 21.140625 23.644531 22.324219 21.875 22.324219 Z M 25.113281 19.179688 C 25.59375 17.394531 24.527344 15.550781 22.742188 15.074219 C 22.453125 14.996094 22.160156 14.957031 21.875 14.957031 C 20.394531 14.957031 19.035156 15.949219 18.636719 17.445312 C 18.402344 18.308594 18.523438 19.210938 18.96875 19.988281 C 19.417969 20.765625 20.140625 21.320312 21.007812 21.550781 C 22.792969 22.027344 24.636719 20.964844 25.113281 19.179688 Z M 16.597656 15.535156 C 16.597656 15.71875 16.449219 15.867188 16.265625 15.867188 L 7.546875 15.867188 C 7.367188 15.867188 7.21875 15.71875 7.21875 15.535156 C 7.21875 15.355469 7.367188 15.207031 7.546875 15.207031 L 8.003906 15.207031 L 8.003906 13.160156 C 8.003906 12.976562 8.152344 12.828125 8.332031 12.828125 L 9.972656 12.828125 C 10.152344 12.828125 10.300781 12.976562 10.300781 13.160156 L 10.300781 15.207031 L 10.757812 15.207031 L 10.757812 11.925781 C 10.757812 11.742188 10.90625 11.59375 11.089844 11.59375 L 12.726562 11.59375 C 12.910156 11.59375 13.054688 11.742188 13.054688 11.925781 L 13.054688 15.207031 L 13.515625 15.207031 L 13.515625 10.691406 C 13.515625 10.507812 13.660156 10.359375 13.84375 10.359375 L 15.480469 10.359375 C 15.664062 10.359375 15.8125 10.507812 15.8125 10.691406 L 15.8125 15.207031 L 16.265625 15.207031 C 16.449219 15.207031 16.597656 15.355469 16.597656 15.535156 Z M 14.171875 15.207031 L 15.152344 15.207031 L 15.152344 11.019531 L 14.171875 11.019531 Z M 11.417969 15.207031 L 12.394531 15.207031 L 12.394531 12.253906 L 11.417969 12.253906 Z M 8.664062 15.207031 L 9.640625 15.207031 L 9.640625 13.488281 L 8.664062 13.488281 Z M 8.546875 11.390625 C 8.589844 11.390625 8.636719 11.378906 8.679688 11.359375 L 14.367188 8.8125 L 14.296875 8.996094 C 14.230469 9.167969 14.316406 9.355469 14.488281 9.421875 C 14.523438 9.4375 14.566406 9.441406 14.605469 9.441406 C 14.738281 9.441406 14.863281 9.363281 14.910156 9.230469 L 15.265625 8.300781 C 15.328125 8.132812 15.246094 7.941406 15.074219 7.878906 L 14.144531 7.523438 C 13.976562 7.457031 13.785156 7.542969 13.722656 7.714844 C 13.65625 7.886719 13.742188 8.074219 13.910156 8.140625 L 14.097656 8.210938 L 8.410156 10.757812 C 8.246094 10.832031 8.171875 11.027344 8.246094 11.195312 C 8.300781 11.316406 8.421875 11.390625 8.546875 11.390625 Z M 24.667969 19.230469 L 24.066406 20.269531 C 23.980469 20.417969 23.800781 20.476562 23.644531 20.40625 L 23.277344 20.242188 C 23.140625 20.339844 22.996094 20.421875 22.84375 20.492188 L 22.804688 20.890625 C 22.785156 21.058594 22.644531 21.1875 22.476562 21.1875 L 21.273438 21.1875 C 21.105469 21.1875 20.964844 21.058594 20.945312 20.890625 L 20.90625 20.492188 C 20.753906 20.421875 20.609375 20.339844 20.472656 20.242188 L 20.105469 20.40625 C 19.949219 20.476562 19.769531 20.417969 19.683594 20.269531 L 19.082031 19.230469 C 19 19.082031 19.039062 18.894531 19.175781 18.796875 L 19.503906 18.558594 C 19.496094 18.476562 19.488281 18.394531 19.488281 18.3125 C 19.488281 18.226562 19.496094 18.144531 19.503906 18.0625 L 19.175781 17.824219 C 19.039062 17.726562 19 17.539062 19.082031 17.394531 L 19.683594 16.351562 C 19.769531 16.207031 19.949219 16.148438 20.105469 16.214844 L 20.472656 16.382812 C 20.609375 16.28125 20.753906 16.199219 20.90625 16.132812 L 20.945312 15.730469 C 20.964844 15.5625 21.105469 15.433594 21.273438 15.433594 L 22.476562 15.433594 C 22.644531 15.433594 22.785156 15.5625 22.804688 15.730469 L 22.84375 16.132812 C 22.996094 16.199219 23.140625 16.285156 23.277344 16.382812 L 23.644531 16.214844 C 23.800781 16.148438 23.980469 16.207031 24.066406 16.351562 L 24.667969 17.394531 C 24.75 17.539062 24.710938 17.726562 24.574219 17.824219 L 24.246094 18.0625 C 24.253906 18.144531 24.261719 18.226562 24.261719 18.3125 C 24.261719 18.394531 24.253906 18.476562 24.246094 18.558594 L 24.574219 18.796875 C 24.710938 18.898438 24.75 19.082031 24.667969 19.230469 Z M 23.945312 19.15625 L 23.699219 18.976562 C 23.59375 18.902344 23.542969 18.773438 23.566406 18.644531 C 23.589844 18.535156 23.601562 18.421875 23.601562 18.3125 C 23.601562 18.199219 23.589844 18.085938 23.566406 17.976562 C 23.542969 17.851562 23.59375 17.722656 23.699219 17.644531 L 23.945312 17.464844 L 23.644531 16.941406 L 23.363281 17.066406 C 23.246094 17.117188 23.109375 17.097656 23.011719 17.011719 C 22.839844 16.863281 22.644531 16.75 22.433594 16.679688 C 22.308594 16.636719 22.222656 16.527344 22.210938 16.398438 L 22.179688 16.09375 L 21.570312 16.09375 L 21.539062 16.398438 C 21.527344 16.527344 21.441406 16.636719 21.320312 16.679688 C 21.105469 16.75 20.910156 16.863281 20.738281 17.011719 C 20.644531 17.097656 20.507812 17.117188 20.386719 17.066406 L 20.109375 16.9375 L 19.804688 17.464844 L 20.054688 17.644531 C 20.15625 17.722656 20.207031 17.851562 20.183594 17.976562 C 20.160156 18.085938 20.152344 18.199219 20.152344 18.3125 C 20.152344 18.421875 20.160156 18.535156 20.183594 18.644531 C 20.207031 18.773438 20.15625 18.902344 20.054688 18.976562 L 19.804688 19.15625 L 20.109375 19.683594 L 20.386719 19.558594 C 20.507812 19.503906 20.644531 19.523438 20.738281 19.609375 C 20.910156 19.757812 21.105469 19.871094 21.320312 19.945312 C 21.441406 19.984375 21.527344 20.09375 21.539062 20.222656 L 21.570312 20.527344 L 22.179688 20.527344 L 22.210938 20.222656 C 22.222656 20.09375 22.308594 19.984375 22.429688 19.945312 C 22.644531 19.871094 22.839844 19.757812 23.011719 19.609375 C 23.109375 19.523438 23.246094 19.503906 23.363281 19.558594 L 23.644531 19.683594 Z M 23.199219 18.3125 C 23.199219 19.042969 22.605469 19.636719 21.875 19.636719 C 21.144531 19.636719 20.550781 19.042969 20.550781 18.3125 C 20.550781 17.582031 21.144531 16.988281 21.875 16.988281 C 22.605469 16.988281 23.199219 17.582031 23.199219 18.3125 Z M 22.539062 18.3125 C 22.539062 17.945312 22.242188 17.644531 21.875 17.644531 C 21.507812 17.644531 21.207031 17.945312 21.207031 18.3125 C 21.207031 18.679688 21.507812 18.976562 21.875 18.976562 C 22.242188 18.976562 22.539062 18.679688 22.539062 18.3125 Z M 23.046875 7.328125 L 23.046875 8 C 23.046875 8.34375 22.765625 8.621094 22.425781 8.621094 L 17.71875 8.621094 C 17.378906 8.621094 17.097656 8.34375 17.097656 8 L 17.097656 7.328125 C 17.097656 6.984375 17.378906 6.707031 17.71875 6.707031 L 22.425781 6.707031 C 22.765625 6.707031 23.046875 6.984375 23.046875 7.328125 Z M 22.386719 7.363281 L 17.757812 7.363281 L 17.757812 7.960938 L 22.386719 7.960938 Z M 22.273438 9.273438 L 17.871094 9.273438 C 17.691406 9.273438 17.542969 9.421875 17.542969 9.601562 C 17.542969 9.785156 17.691406 9.933594 17.871094 9.933594 L 22.273438 9.933594 C 22.453125 9.933594 22.601562 9.785156 22.601562 9.601562 C 22.601562 9.421875 22.453125 9.273438 22.273438 9.273438 Z M 22.273438 10.582031 L 17.871094 10.582031 C 17.691406 10.582031 17.542969 10.726562 17.542969 10.910156 C 17.542969 11.09375 17.691406 11.238281 17.871094 11.238281 L 22.273438 11.238281 C 22.453125 11.238281 22.601562 11.09375 22.601562 10.910156 C 22.601562 10.726562 22.453125 10.582031 22.273438 10.582031 Z M 22.273438 11.886719 L 17.871094 11.886719 C 17.691406 11.886719 17.542969 12.035156 17.542969 12.21875 C 17.542969 12.398438 17.691406 12.546875 17.871094 12.546875 L 22.273438 12.546875 C 22.453125 12.546875 22.601562 12.398438 22.601562 12.21875 C 22.601562 12.035156 22.453125 11.886719 22.273438 11.886719 Z M 22.273438 11.886719 " fill-opacity="1" fill-rule="nonzero"/></g></svg>