<svg xmlns="http://www.w3.org/2000/svg" xmlns:xlink="http://www.w3.org/1999/xlink" width="92" zoomAndPan="magnify" viewBox="0 0 69.119995 59.039997" height="68" preserveAspectRatio="xMidYMid meet" version="1.0"><defs><clipPath id="130a12d515"><path d="M 12.851562 3.875 L 55.65625 3.875 L 55.65625 46.679688 L 12.851562 46.679688 Z M 12.851562 3.875 " clip-rule="nonzero"/></clipPath></defs><g clip-path="url(#130a12d515)"><path fill="#ea3969" d="M 19.898438 42.660156 L 19.898438 42.84375 C 19.898438 43.964844 18.988281 44.875 17.867188 44.875 L 14.917969 44.875 C 13.796875 44.875 12.886719 43.964844 12.886719 42.84375 L 12.886719 26.609375 C 12.886719 25.488281 13.796875 24.578125 14.917969 24.578125 L 17.867188 24.578125 C 18.988281 24.578125 19.898438 25.488281 19.898438 26.609375 L 19.898438 26.792969 L 26.171875 26.792969 L 26.171875 22.175781 C 26.171875 21.871094 26.417969 21.625 26.726562 21.625 L 31.152344 21.625 C 31.457031 21.625 31.707031 21.871094 31.707031 22.175781 L 31.707031 28.710938 L 36.503906 31.480469 L 36.503906 17.015625 C 36.503906 16.707031 36.75 16.460938 37.058594 16.460938 L 41.484375 16.460938 C 41.789062 16.460938 42.039062 16.707031 42.039062 17.015625 L 42.039062 35.605469 L 46.835938 32.835938 L 46.835938 11.84375 C 46.835938 11.539062 47.082031 11.292969 47.390625 11.292969 L 51.816406 11.292969 C 52.121094 11.292969 52.371094 11.539062 52.371094 11.84375 L 52.371094 30.234375 C 53.386719 30.296875 54.355469 30.851562 54.902344 31.800781 C 55.316406 32.519531 55.429688 33.375 55.214844 34.179688 C 55 34.984375 54.472656 35.667969 53.753906 36.085938 L 38.386719 44.957031 C 35.472656 46.640625 31.925781 46.804688 28.871094 45.398438 L 23.683594 43.011719 C 23.175781 42.78125 22.625 42.660156 22.066406 42.660156 Z M 51.261719 30.371094 L 51.261719 12.398438 L 47.941406 12.398438 L 47.941406 32.195312 L 50.617188 30.652344 C 50.828125 30.53125 51.042969 30.4375 51.261719 30.371094 Z M 18.792969 42.84375 L 18.792969 26.609375 C 18.792969 26.097656 18.378906 25.683594 17.867188 25.683594 L 14.917969 25.683594 C 14.40625 25.683594 13.996094 26.097656 13.996094 26.609375 L 13.996094 42.84375 C 13.996094 43.351562 14.40625 43.765625 14.917969 43.765625 L 17.867188 43.765625 C 18.378906 43.765625 18.792969 43.351562 18.792969 42.84375 Z M 40.933594 36.246094 L 40.933594 17.566406 L 37.609375 17.566406 L 37.609375 32.121094 L 38.84375 32.832031 C 40.152344 33.585938 40.789062 35.058594 40.546875 36.46875 Z M 30.597656 28.070312 L 30.597656 22.730469 L 27.277344 22.730469 L 27.277344 26.796875 C 28.074219 26.835938 28.847656 27.0625 29.539062 27.460938 Z M 27.046875 27.898438 L 19.898438 27.898438 L 19.898438 41.550781 L 22.066406 41.550781 C 22.785156 41.550781 23.496094 41.707031 24.148438 42.007812 L 29.332031 44.390625 C 32.0625 45.648438 35.230469 45.5 37.832031 44 L 53.199219 35.125 C 53.667969 34.855469 54.007812 34.414062 54.144531 33.894531 C 54.285156 33.375 54.210938 32.820312 53.945312 32.351562 C 53.382812 31.382812 52.140625 31.050781 51.171875 31.609375 L 39.652344 38.261719 C 39.207031 38.738281 38.636719 39.082031 37.996094 39.253906 C 37.097656 39.492188 36.144531 39.367188 35.335938 38.902344 L 29.402344 35.476562 C 29.136719 35.324219 29.046875 34.984375 29.199219 34.71875 C 29.351562 34.453125 29.691406 34.363281 29.953125 34.515625 L 35.890625 37.945312 C 36.441406 38.261719 37.097656 38.347656 37.710938 38.183594 C 38.324219 38.019531 38.851562 37.617188 39.167969 37.066406 C 39.828125 35.917969 39.4375 34.453125 38.289062 33.789062 L 28.984375 28.417969 C 28.398438 28.078125 27.730469 27.898438 27.046875 27.898438 Z M 49.050781 5.800781 L 40.398438 14.449219 C 40.226562 14.625 39.957031 14.664062 39.738281 14.542969 L 33.460938 11.054688 L 27.855469 16.664062 C 27.636719 16.878906 27.289062 16.878906 27.070312 16.664062 C 26.855469 16.449219 26.855469 16.097656 27.070312 15.882812 L 32.976562 9.976562 C 33.152344 9.800781 33.421875 9.765625 33.636719 9.886719 L 39.914062 13.371094 L 48.265625 5.019531 L 45.429688 5.019531 C 45.121094 5.019531 44.875 4.769531 44.875 4.464844 C 44.875 4.160156 45.121094 3.910156 45.429688 3.910156 L 49.601562 3.910156 C 49.75 3.910156 49.890625 3.96875 49.996094 4.074219 C 50.097656 4.179688 50.15625 4.316406 50.15625 4.464844 L 50.15625 8.640625 C 50.15625 8.945312 49.910156 9.191406 49.601562 9.191406 C 49.296875 9.191406 49.050781 8.945312 49.050781 8.640625 Z M 49.050781 5.800781 " fill-opacity="1" fill-rule="evenodd"/></g></svg>